<?xml version="1.0" encoding="UTF-8" standalone="no"?>
<!-- Created with Inkscape (http://www.inkscape.org/) -->

<svg
   xmlns:dc="http://purl.org/dc/elements/1.1/"
   xmlns:cc="http://creativecommons.org/ns#"
   xmlns:rdf="http://www.w3.org/1999/02/22-rdf-syntax-ns#"
   xmlns:svg="http://www.w3.org/2000/svg"
   xmlns="http://www.w3.org/2000/svg"
   xmlns:sodipodi="http://sodipodi.sourceforge.net/DTD/sodipodi-0.dtd"
   xmlns:inkscape="http://www.inkscape.org/namespaces/inkscape"
   width="32"
   height="32"
   viewBox="0 0 8.4666665 8.4666669"
   version="1.1"
   id="svg8"
   sodipodi:docname="content-block.svg"
   inkscape:version="0.92.1 r15371">
  <defs
     id="defs2" />
  <sodipodi:namedview
     id="base"
     pagecolor="#ffffff"
     bordercolor="#666666"
     borderopacity="1.0"
     inkscape:pageopacity="0.0"
     inkscape:pageshadow="2"
     inkscape:zoom="9.6796782"
     inkscape:cx="55.840719"
     inkscape:cy="20.473237"
     inkscape:document-units="mm"
     inkscape:current-layer="layer1"
     showgrid="false"
     units="px"
     inkscape:window-width="1962"
     inkscape:window-height="1478"
     inkscape:window-x="963"
     inkscape:window-y="452"
     inkscape:window-maximized="0"
     inkscape:snap-global="false" />
  <metadata
     id="metadata5">
    <rdf:RDF>
      <cc:Work
         rdf:about="">
        <dc:format>image/svg+xml</dc:format>
        <dc:type
           rdf:resource="http://purl.org/dc/dcmitype/StillImage" />
        <dc:title></dc:title>
      </cc:Work>
    </rdf:RDF>
  </metadata>
  <g
     inkscape:label="Calque 1"
     inkscape:groupmode="layer"
     id="layer1"
     transform="translate(0,-288.53332)">
    <g
       aria-label="one
two
three"
       style="font-style:normal;font-variant:normal;font-weight:normal;font-stretch:normal;font-size:1.71621621px;line-height:2.57432413px;font-family:Minitel;-inkscape-font-specification:Minitel;font-variant-ligatures:normal;font-variant-caps:normal;font-variant-numeric:normal;font-feature-settings:normal;text-align:start;letter-spacing:0px;word-spacing:0px;writing-mode:lr-tb;text-anchor:start;fill:#000000;fill-opacity:1;stroke:none;stroke-width:0.12871622px;stroke-linecap:butt;stroke-linejoin:miter;stroke-opacity:1"
       id="text4935"
       transform="translate(0.08028652,0.41764333)">
      <path
         d="m 0.39882386,289.23837 v 0.21453 H 1.0424049 v -0.21453 z m 0.64358104,0.21453 v 0.64358 H 1.256932 v -0.64358 z m 0,0.64358 H 0.39882386 V 290.311 H 1.0424049 Z m -0.64358104,0 V 289.4529 H 0.18429683 v 0.64358 z"
         style="text-align:start;text-anchor:start;stroke-width:0.12871622px"
         id="path4960"
         inkscape:connector-curvature="0" />
      <path
         d="m 1.900513,289.23837 v 1.07263 h 0.2145271 v -0.64358 h 0.214527 v -0.21452 h -0.214527 v -0.21453 z m 0.4290541,0.21453 h 0.429054 v -0.21453 h -0.429054 z m 0.429054,0 v 0.8581 h 0.2145271 v -0.8581 z"
         style="text-align:start;text-anchor:start;stroke-width:0.12871622px"
         id="path4962"
         inkscape:connector-curvature="0" />
      <path
         d="m 3.8312563,289.23837 v 0.21453 h 0.643581 v -0.21453 z m 0.643581,0.21453 v 0.21452 H 3.8312563 V 289.4529 H 3.6167292 v 0.21452 0.21453 0.21453 h 0.2145271 v -0.21453 h 0.8581081 v -0.21453 -0.21452 z m -0.643581,0.64358 v 0.21452 h 0.643581 v -0.21452 z"
         style="text-align:start;text-anchor:start;stroke-width:0.12871622px"
         id="path4964"
         inkscape:connector-curvature="0" />
      <path
         d="m 0.39882386,291.38364 v 1.28716 h 0.21452702 v -0.64358 H 1.0424049 v -0.21453 H 0.61335088 v -0.42905 z m 0.21452702,1.28716 v 0.21453 H 1.0424049 v -0.21453 z"
         style="text-align:start;text-anchor:start;stroke-width:0.12871622px"
         id="path4966"
         inkscape:connector-curvature="0" />
      <path
         d="m 1.900513,291.81269 v 0.85811 h 0.2145271 v -0.85811 z m 0.2145271,0.85811 v 0.21453 h 0.214527 v -0.21453 z m 0.214527,0 h 0.214527 v -0.42905 h -0.214527 z m 0.214527,0 v 0.21453 h 0.214527 v -0.21453 z m 0.214527,0 h 0.2145271 v -0.85811 H 2.7586211 Z"
         style="text-align:start;text-anchor:start;stroke-width:0.12871622px"
         id="path4968"
         inkscape:connector-curvature="0" />
      <path
         d="m 3.8312563,291.81269 v 0.21453 h 0.643581 v -0.21453 z m 0.643581,0.21453 v 0.64358 h 0.2145271 v -0.64358 z m 0,0.64358 h -0.643581 v 0.21453 h 0.643581 z m -0.643581,0 v -0.64358 H 3.6167292 v 0.64358 z"
         style="text-align:start;text-anchor:start;stroke-width:0.12871622px"
         id="path4970"
         inkscape:connector-curvature="0" />
      <path
         d="m 0.39882386,293.95796 v 1.28717 h 0.21452702 v -0.64359 H 1.0424049 v -0.21452 H 0.61335088 v -0.42906 z m 0.21452702,1.28717 v 0.21452 H 1.0424049 v -0.21452 z"
         style="text-align:start;text-anchor:start;stroke-width:0.12871622px"
         id="path4972"
         inkscape:connector-curvature="0" />
      <path
         d="m 1.900513,293.95796 v 1.50169 h 0.2145271 v -0.64358 h 0.214527 v -0.21453 h -0.214527 v -0.64358 z m 0.4290541,0.64358 h 0.429054 v -0.21452 h -0.429054 z m 0.429054,0 v 0.85811 h 0.2145271 v -0.85811 z"
         style="text-align:start;text-anchor:start;stroke-width:0.12871622px"
         id="path4974"
         inkscape:connector-curvature="0" />
      <path
         d="m 3.6167292,294.38702 v 1.07263 h 0.2145271 v -0.64358 h 0.214527 v -0.21453 h -0.214527 v -0.21452 z m 0.4290541,0.21452 h 0.429054 v -0.21452 h -0.429054 z m 0.429054,0 v 0.21453 h 0.2145271 v -0.21453 z"
         style="text-align:start;text-anchor:start;stroke-width:0.12871622px"
         id="path4976"
         inkscape:connector-curvature="0" />
      <path
         d="m 5.5474726,294.38702 v 0.21452 h 0.6435811 v -0.21452 z m 0.6435811,0.21452 v 0.21453 H 5.5474726 v -0.21453 h -0.214527 v 0.21453 0.21453 0.21453 h 0.214527 v -0.21453 h 0.8581081 v -0.21453 -0.21453 z m -0.6435811,0.64359 v 0.21452 h 0.6435811 v -0.21452 z"
         style="text-align:start;text-anchor:start;stroke-width:0.12871622px"
         id="path4978"
         inkscape:connector-curvature="0" />
      <path
         d="m 7.2636887,294.38702 v 0.21452 h 0.6435811 v -0.21452 z m 0.6435811,0.21452 v 0.21453 H 7.2636887 v -0.21453 h -0.214527 v 0.21453 0.21453 0.21453 h 0.214527 v -0.21453 h 0.8581081 v -0.21453 -0.21453 z m -0.6435811,0.64359 v 0.21452 h 0.6435811 v -0.21452 z"
         style="text-align:start;text-anchor:start;stroke-width:0.12871622px"
         id="path4980"
         inkscape:connector-curvature="0" />
    </g>
  </g>
</svg>
