<?xml version="1.0" encoding="UTF-8" standalone="no"?>
<!-- Created with Inkscape (http://www.inkscape.org/) -->

<svg
   xmlns:dc="http://purl.org/dc/elements/1.1/"
   xmlns:cc="http://creativecommons.org/ns#"
   xmlns:rdf="http://www.w3.org/1999/02/22-rdf-syntax-ns#"
   xmlns:svg="http://www.w3.org/2000/svg"
   xmlns="http://www.w3.org/2000/svg"
   xmlns:sodipodi="http://sodipodi.sourceforge.net/DTD/sodipodi-0.dtd"
   xmlns:inkscape="http://www.inkscape.org/namespaces/inkscape"
   width="32"
   height="32"
   viewBox="0 0 8.4666665 8.4666669"
   version="1.1"
   id="svg8"
   inkscape:version="0.92.1 r15371"
   sodipodi:docname="content-raw.svg">
  <defs
     id="defs2">
    <filter
       color-interpolation-filters="sRGB"
       id="filter9468">
      <feGaussianBlur
         stdDeviation="1.3112114"
         id="feGaussianBlur9470" />
    </filter>
    <filter
       color-interpolation-filters="sRGB"
       id="filter9468-5">
      <feGaussianBlur
         stdDeviation="1.3112114"
         id="feGaussianBlur9470-6" />
    </filter>
    <filter
       color-interpolation-filters="sRGB"
       id="filter9468-5-4">
      <feGaussianBlur
         stdDeviation="1.3112114"
         id="feGaussianBlur9470-6-2" />
    </filter>
    <filter
       color-interpolation-filters="sRGB"
       id="filter9468-5-4-9">
      <feGaussianBlur
         stdDeviation="1.3112114"
         id="feGaussianBlur9470-6-2-8" />
    </filter>
  </defs>
  <sodipodi:namedview
     id="base"
     pagecolor="#ffffff"
     bordercolor="#666666"
     borderopacity="1.0"
     inkscape:pageopacity="0.0"
     inkscape:pageshadow="2"
     inkscape:zoom="22.627417"
     inkscape:cx="30.890968"
     inkscape:cy="-4.5160773"
     inkscape:document-units="px"
     inkscape:current-layer="layer1"
     showgrid="false"
     units="px"
     inkscape:window-width="3840"
     inkscape:window-height="2064"
     inkscape:window-x="0"
     inkscape:window-y="27"
     inkscape:window-maximized="1" />
  <metadata
     id="metadata5">
    <rdf:RDF>
      <cc:Work
         rdf:about="">
        <dc:format>image/svg+xml</dc:format>
        <dc:type
           rdf:resource="http://purl.org/dc/dcmitype/StillImage" />
        <dc:title></dc:title>
      </cc:Work>
    </rdf:RDF>
  </metadata>
  <g
     inkscape:label="Calque 1"
     inkscape:groupmode="layer"
     id="layer1"
     transform="translate(0,-288.53333)">
    <path
       inkscape:connector-curvature="0"
       id="path8746"
       style="font-style:normal;font-variant:normal;font-weight:normal;font-stretch:normal;font-size:medium;line-height:1.15358329px;font-family:'Courier 10 Pitch';-inkscape-font-specification:'Courier 10 Pitch';font-variant-ligatures:normal;font-variant-caps:normal;font-variant-numeric:normal;font-feature-settings:normal;text-align:center;letter-spacing:0px;word-spacing:0px;writing-mode:lr-tb;text-anchor:middle;fill:#000000;fill-opacity:1;stroke:none;stroke-width:0.12376138px;stroke-linecap:butt;stroke-linejoin:miter;stroke-opacity:1"
       d="m 0.68308346,290.82609 c 0.19636806,0 0.33003034,-0.19307 0.33003034,-0.53465 0,-0.34159 -0.13366228,-0.53465 -0.33003034,-0.53465 -0.19636805,0 -0.33003034,0.19306 -0.33003034,0.53465 0,0.34158 0.13366229,0.53465 0.33003034,0.53465 z m 0,-0.95379 c 0.11881093,0 0.19471791,0.14191 0.19471791,0.41914 0,0.27722 -0.075907,0.42078 -0.19471791,0.42078 -0.11881092,0 -0.19636805,-0.14356 -0.19636805,-0.42078 0,-0.27723 0.0775571,-0.41914 0.19636805,-0.41914 z" />
    <path
       inkscape:connector-curvature="0"
       id="path8748"
       style="font-style:normal;font-variant:normal;font-weight:normal;font-stretch:normal;font-size:medium;line-height:1.15358329px;font-family:'Courier 10 Pitch';-inkscape-font-specification:'Courier 10 Pitch';font-variant-ligatures:normal;font-variant-caps:normal;font-variant-numeric:normal;font-feature-settings:normal;text-align:center;letter-spacing:0px;word-spacing:0px;writing-mode:lr-tb;text-anchor:middle;fill:#000000;fill-opacity:1;stroke:none;stroke-width:0.12376138px;stroke-linecap:butt;stroke-linejoin:miter;stroke-opacity:1"
       d="m 1.6757529,290.82609 c 0.196368,0 0.3300303,-0.19307 0.3300303,-0.53465 0,-0.34159 -0.1336623,-0.53465 -0.3300303,-0.53465 -0.1963681,0 -0.3300304,0.19306 -0.3300304,0.53465 0,0.34158 0.1336623,0.53465 0.3300304,0.53465 z m 0,-0.95379 c 0.1188109,0 0.1947179,0.14191 0.1947179,0.41914 0,0.27722 -0.075907,0.42078 -0.1947179,0.42078 -0.118811,0 -0.1963681,-0.14356 -0.1963681,-0.42078 0,-0.27723 0.077557,-0.41914 0.1963681,-0.41914 z" />
    <path
       inkscape:connector-curvature="0"
       id="path8750"
       style="font-style:normal;font-variant:normal;font-weight:normal;font-stretch:normal;font-size:medium;line-height:1.15358329px;font-family:'Courier 10 Pitch';-inkscape-font-specification:'Courier 10 Pitch';font-variant-ligatures:normal;font-variant-caps:normal;font-variant-numeric:normal;font-feature-settings:normal;text-align:center;letter-spacing:0px;word-spacing:0px;writing-mode:lr-tb;text-anchor:middle;fill:#000000;fill-opacity:1;stroke:none;stroke-width:0.12376138px;stroke-linecap:butt;stroke-linejoin:miter;stroke-opacity:1"
       d="m 3.468024,289.935 0.1518139,-0.0363 v 0.78712 H 3.4861756 c -0.075907,0 -0.1105601,0.003 -0.1105601,0.0561 0,0.0379 0.021452,0.0577 0.064356,0.0577 h 0.4818443 c 0.042904,0 0.064356,-0.0198 0.064356,-0.0577 0,-0.0528 -0.034653,-0.0561 -0.1105601,-0.0561 H 3.7468996 v -0.87128 c 0,-0.033 -0.013201,-0.0528 -0.033003,-0.0528 -0.0099,0 -0.021452,0.002 -0.034653,0.005 l -0.239272,0.0643 c -0.034653,0.01 -0.052805,0.0297 -0.052805,0.0561 0,0.0297 0.021452,0.0512 0.056105,0.0512 0.00825,0 0.016501,-0.002 0.024752,-0.003 z" />
    <path
       inkscape:connector-curvature="0"
       id="path8752"
       style="font-style:normal;font-variant:normal;font-weight:normal;font-stretch:normal;font-size:medium;line-height:1.15358329px;font-family:'Courier 10 Pitch';-inkscape-font-specification:'Courier 10 Pitch';font-variant-ligatures:normal;font-variant-caps:normal;font-variant-numeric:normal;font-feature-settings:normal;text-align:center;letter-spacing:0px;word-spacing:0px;writing-mode:lr-tb;text-anchor:middle;fill:#000000;fill-opacity:1;stroke:none;stroke-width:0.12376138px;stroke-linecap:butt;stroke-linejoin:miter;stroke-opacity:1"
       d="M 4.6471605,290.68582 H 4.5068976 v -0.35643 h 0.2128695 c 0,0.008 0,0.0165 0,0.0231 0,0.0693 0.00825,0.099 0.051155,0.099 0.039604,0 0.049505,-0.0215 0.049505,-0.071 v -0.20461 c 0,-0.0446 -0.014851,-0.0644 -0.049505,-0.0644 -0.042904,0 -0.051155,0.0297 -0.051155,0.099 0,0.007 0,0.0149 0,0.0215 H 4.5068976 v -0.27227 h 0.4372902 v 0.11551 c 0,0.0149 0,0.0231 0,0.0264 0,0.0495 0.014851,0.0709 0.057755,0.0709 0.037953,0 0.056105,-0.0198 0.056105,-0.0561 v -0.20792 c 0,-0.0429 -0.019802,-0.0644 -0.056105,-0.0644 H 4.2890775 c -0.036303,0 -0.056105,0.0198 -0.056105,0.0578 0,0.0396 0.019802,0.0578 0.064356,0.0578 0.00495,0 0.014851,0 0.031353,0 h 0.051155 v 0.72606 h -0.051155 c -0.014851,0 -0.023102,0 -0.026402,0 -0.049505,0 -0.069306,0.0132 -0.069306,0.0561 0,0.0379 0.019802,0.0577 0.056105,0.0577 h 0.3976866 c 0.036303,0 0.056105,-0.0198 0.056105,-0.0577 0,-0.0396 -0.019802,-0.0561 -0.064356,-0.0561 -0.00495,0 -0.014851,0 -0.031353,0 z" />
    <path
       inkscape:connector-curvature="0"
       id="path8754"
       style="font-style:normal;font-variant:normal;font-weight:normal;font-stretch:normal;font-size:medium;line-height:1.15358329px;font-family:'Courier 10 Pitch';-inkscape-font-specification:'Courier 10 Pitch';font-variant-ligatures:normal;font-variant-caps:normal;font-variant-numeric:normal;font-feature-settings:normal;text-align:center;letter-spacing:0px;word-spacing:0px;writing-mode:lr-tb;text-anchor:middle;fill:#000000;fill-opacity:1;stroke:none;stroke-width:0.12376138px;stroke-linecap:butt;stroke-linejoin:miter;stroke-opacity:1"
       d="m 6.6506511,290.78318 0.2854762,-0.86303 c 0.0099,-0.0297 0.016502,-0.0511 0.016502,-0.0676 v -0.0281 c 0,-0.0297 -0.014851,-0.0412 -0.044554,-0.0412 h -0.532999 c -0.031353,0 -0.051155,0.0165 -0.054455,0.0462 l -0.00825,0.0726 c -0.00165,0.008 -0.00165,0.0149 -0.00165,0.0215 0,0.0363 0.016501,0.0545 0.054455,0.0545 0.037953,0 0.056105,-0.0248 0.059405,-0.0743 h 0.4092376 l -0.3168291,0.85973 c -0.0033,0.01 -0.00495,0.0198 -0.00495,0.0264 0,0.0148 0.013201,0.0247 0.034653,0.0247 h 0.057755 c 0.00495,0 0.00825,0 0.013201,0 0.018152,0 0.023102,-0.002 0.033003,-0.0313 z" />
    <path
       inkscape:connector-curvature="0"
       id="path8756"
       style="font-style:normal;font-variant:normal;font-weight:normal;font-stretch:normal;font-size:medium;line-height:1.15358329px;font-family:'Courier 10 Pitch';-inkscape-font-specification:'Courier 10 Pitch';font-variant-ligatures:normal;font-variant-caps:normal;font-variant-numeric:normal;font-feature-settings:normal;text-align:center;letter-spacing:0px;word-spacing:0px;writing-mode:lr-tb;text-anchor:middle;fill:#000000;fill-opacity:1;stroke:none;stroke-width:0.12376138px;stroke-linecap:butt;stroke-linejoin:miter;stroke-opacity:1"
       d="m 7.2868874,290.79968 h 0.6650111 c 0.036303,0 0.056105,-0.0215 0.056105,-0.0594 v -0.20297 c 0,-0.0545 -0.0099,-0.0792 -0.056105,-0.0792 -0.052805,0 -0.057755,0.0297 -0.057755,0.0974 v 0.13036 H 7.4651038 v -0.35643 h 0.2112194 c 0,0.008 0,0.0165 0,0.0231 0,0.0693 0.00825,0.099 0.051155,0.099 0.047854,0 0.051155,-0.0297 0.051155,-0.0941 v -0.15016 c 0,-0.066 -0.0066,-0.0957 -0.051155,-0.0957 -0.041254,0 -0.052805,0.0231 -0.052805,0.0776 0,0.003 0.00165,0.0182 0.00165,0.0429 H 7.4651038 v -0.27227 h 0.4290394 v 0.11551 c 0,0.0149 0,0.0231 0,0.0264 0,0.0495 0.014851,0.0709 0.057755,0.0709 0.044554,0 0.056105,-0.0231 0.056105,-0.0743 v -0.18977 c 0,-0.0429 -0.019802,-0.0644 -0.056105,-0.0644 H 7.2868874 c -0.064356,0 -0.097359,0.003 -0.097359,0.0578 0,0.0512 0.028053,0.0578 0.097359,0.0578 h 0.051155 v 0.72606 h -0.051155 c -0.069306,0 -0.097359,0.005 -0.097359,0.0561 0,0.0379 0.019802,0.0577 0.059405,0.0577 0.016502,0 0.029703,0 0.037954,0 z" />
    <path
       inkscape:connector-curvature="0"
       id="path8758"
       style="font-style:normal;font-variant:normal;font-weight:normal;font-stretch:normal;font-size:medium;line-height:1.15358329px;font-family:'Courier 10 Pitch';-inkscape-font-specification:'Courier 10 Pitch';font-variant-ligatures:normal;font-variant-caps:normal;font-variant-numeric:normal;font-feature-settings:normal;text-align:center;letter-spacing:0px;word-spacing:0px;writing-mode:lr-tb;text-anchor:middle;fill:#000000;fill-opacity:1;stroke:none;stroke-width:0.12376138px;stroke-linecap:butt;stroke-linejoin:miter;stroke-opacity:1"
       d="m 0.66328164,293.27491 h 0.26072398 c 0.0429039,0 0.0643559,-0.0198 0.0643559,-0.0578 0,-0.0446 -0.0264024,-0.0561 -0.0907583,-0.0561 -0.008251,0 -0.0181517,0 -0.0280526,0 v -0.13531 h 0.0676562 c 0.0346532,0 0.0445541,-0.0148 0.0511547,-0.0495 l 0.006601,-0.033 c 0.0033,-0.0132 0.0033,-0.0231 0.0033,-0.0281 0,-0.0231 -0.0165015,-0.0396 -0.0379535,-0.0396 -0.0264024,0 -0.0165015,0.0281 -0.0495046,0.0281 h -0.0412538 v -0.61221 c 0,-0.0248 -0.008251,-0.038 -0.0247523,-0.0412 l -0.0825076,-0.0132 c -0.008251,-0.002 -0.0148514,-0.002 -0.021452,-0.002 -0.0181517,0 -0.0264024,0.007 -0.0396036,0.0297 l -0.33993125,0.57755 c -0.0132012,0.0214 -0.0297027,0.0396 -0.0297027,0.0776 v 0.0561 c 0,0.033 0.0165015,0.0495 0.0429039,0.0495 h 0.37623459 v 0.13531 h -0.0940586 c -0.0412538,0 -0.0594055,0.0165 -0.0594055,0.0561 0,0.0462 0.0181517,0.0578 0.0660061,0.0578 z m 0.087458,-0.37128 H 0.44546161 l 0.30527807,-0.5462 z" />
    <path
       inkscape:connector-curvature="0"
       id="path8760"
       style="font-style:normal;font-variant:normal;font-weight:normal;font-stretch:normal;font-size:medium;line-height:1.15358329px;font-family:'Courier 10 Pitch';-inkscape-font-specification:'Courier 10 Pitch';font-variant-ligatures:normal;font-variant-caps:normal;font-variant-numeric:normal;font-feature-settings:normal;text-align:center;letter-spacing:0px;word-spacing:0px;writing-mode:lr-tb;text-anchor:middle;fill:#000000;fill-opacity:1;stroke:none;stroke-width:0.12376138px;stroke-linecap:butt;stroke-linejoin:miter;stroke-opacity:1"
       d="m 1.514038,292.75346 c -0.1072599,0.0462 -0.1666653,0.13531 -0.1666653,0.24422 0,0.17822 0.1320121,0.30363 0.3283802,0.30363 0.1947179,0 0.3283802,-0.12376 0.3283802,-0.30032 0,-0.11387 -0.059405,-0.20297 -0.1683155,-0.24753 0.1039595,-0.0495 0.1584146,-0.13036 0.1584146,-0.23597 0,-0.15841 -0.1287119,-0.28548 -0.3184793,-0.28548 -0.1897675,0 -0.3184793,0.12212 -0.3184793,0.28548 0,0.10561 0.051155,0.18317 0.1567644,0.23597 z m -0.026402,-0.23597 c 0,-0.10396 0.075907,-0.17987 0.1881173,-0.17987 0.1138604,0 0.1881173,0.0792 0.1881173,0.17822 0,0.10891 -0.079207,0.18317 -0.1881173,0.18317 -0.1105602,0 -0.1881173,-0.0759 -0.1881173,-0.18152 z m -0.00825,0.4835 c 0,-0.11552 0.080857,-0.18812 0.1963681,-0.18812 0.1155106,0 0.196368,0.0743 0.196368,0.18812 0,0.11386 -0.077557,0.18811 -0.196368,0.18811 -0.1204611,0 -0.1963681,-0.0809 -0.1963681,-0.18811 z" />
    <path
       inkscape:connector-curvature="0"
       id="path8762"
       style="font-style:normal;font-variant:normal;font-weight:normal;font-stretch:normal;font-size:medium;line-height:1.15358329px;font-family:'Courier 10 Pitch';-inkscape-font-specification:'Courier 10 Pitch';font-variant-ligatures:normal;font-variant-caps:normal;font-variant-numeric:normal;font-feature-settings:normal;text-align:center;letter-spacing:0px;word-spacing:0px;writing-mode:lr-tb;text-anchor:middle;fill:#000000;fill-opacity:1;stroke:none;stroke-width:0.12376138px;stroke-linecap:butt;stroke-linejoin:miter;stroke-opacity:1"
       d="m 3.479575,292.64455 v -0.26072 h 0.3646836 c 0.049505,0 0.077557,-0.0231 0.077557,-0.0627 0,-0.0412 -0.024752,-0.0627 -0.077557,-0.0627 H 3.4366711 c -0.051155,0 -0.074257,0.0115 -0.074257,0.0495 v 0.40099 c 0,0.0512 0.00495,0.0825 0.044554,0.0825 0.047854,0 0.1006592,-0.0726 0.2260708,-0.0726 0.1287118,0 0.2244206,0.10066 0.2244206,0.23267 0,0.13366 -0.095709,0.23267 -0.2425723,0.23267 -0.1254115,0 -0.2145197,-0.0627 -0.2541234,-0.0627 -0.031353,0 -0.056105,0.0264 -0.056105,0.0545 0,0.066 0.1287118,0.12541 0.3184792,0.12541 0.2194702,0 0.369634,-0.15346 0.369634,-0.35478 0,-0.19142 -0.1369626,-0.33993 -0.3283802,-0.33993 -0.056105,0 -0.1171607,0.0132 -0.184817,0.0379 z" />
    <path
       inkscape:connector-curvature="0"
       id="path8764"
       style="font-style:normal;font-variant:normal;font-weight:normal;font-stretch:normal;font-size:medium;line-height:1.15358329px;font-family:'Courier 10 Pitch';-inkscape-font-specification:'Courier 10 Pitch';font-variant-ligatures:normal;font-variant-caps:normal;font-variant-numeric:normal;font-feature-settings:normal;text-align:center;letter-spacing:0px;word-spacing:0px;writing-mode:lr-tb;text-anchor:middle;fill:#000000;fill-opacity:1;stroke:none;stroke-width:0.12376138px;stroke-linecap:butt;stroke-linejoin:miter;stroke-opacity:1"
       d="m 4.9078844,292.34587 c -0.077557,-0.033 -0.1501638,-0.0512 -0.2244206,-0.0512 -0.2673246,0 -0.4620425,0.21617 -0.4620425,0.5033 0,0.29537 0.1980182,0.49999 0.4587422,0.49999 0.1039596,0 0.1897675,-0.028 0.2788756,-0.0858 0.059405,-0.038 0.090758,-0.0643 0.090758,-0.10065 0,-0.033 -0.024752,-0.0578 -0.059406,-0.0578 -0.028053,0 -0.061056,0.0363 -0.1138604,0.066 -0.062706,0.0346 -0.130362,0.0528 -0.1897675,0.0528 -0.1798665,0 -0.3184793,-0.14026 -0.3184793,-0.37458 0,-0.25413 0.1287119,-0.39439 0.315179,-0.39439 0.1072599,0 0.1897675,0.0594 0.2095693,0.13531 0.018152,0.0726 0.0099,0.11221 0.079207,0.11221 0.047854,0 0.057755,-0.0214 0.057755,-0.0643 0,-0.0115 -0.0033,-0.0759 -0.0033,-0.19967 0,-0.0561 -0.0033,-0.0809 -0.059406,-0.0809 -0.031353,0 -0.047854,0.0115 -0.059405,0.0396 z" />
    <path
       inkscape:connector-curvature="0"
       id="path8766"
       style="font-style:normal;font-variant:normal;font-weight:normal;font-stretch:normal;font-size:medium;line-height:1.15358329px;font-family:'Courier 10 Pitch';-inkscape-font-specification:'Courier 10 Pitch';font-variant-ligatures:normal;font-variant-caps:normal;font-variant-numeric:normal;font-feature-settings:normal;text-align:center;letter-spacing:0px;word-spacing:0px;writing-mode:lr-tb;text-anchor:middle;fill:#000000;fill-opacity:1;stroke:none;stroke-width:0.12376138px;stroke-linecap:butt;stroke-linejoin:miter;stroke-opacity:1"
       d="m 6.3585742,293.27491 h 0.5313489 c 0.024752,0 0.042904,-0.0181 0.046204,-0.0528 l 0.00825,-0.0627 c 0,-0.005 0.00165,-0.0115 0.00165,-0.0165 0,-0.0429 -0.023102,-0.066 -0.057755,-0.066 -0.034653,0 -0.056105,0.0231 -0.061056,0.071 H 6.4592335 l 0.099009,-0.0957 c 0.2095692,-0.20792 0.381185,-0.33003 0.381185,-0.52145 0,-0.16831 -0.1336623,-0.29868 -0.3135288,-0.29868 -0.10891,0 -0.2161699,0.0429 -0.2838261,0.10891 -0.024752,0.0248 -0.026402,0.0396 -0.026402,0.071 0,0.0561 0.00825,0.0842 0.047854,0.0842 0.056105,0 0.067656,-0.0479 0.087458,-0.0743 0.036303,-0.0479 0.1039596,-0.0776 0.1716158,-0.0776 0.1039595,0 0.1765662,0.0776 0.1765662,0.19307 0,0.13531 -0.1353124,0.24753 -0.3465318,0.44719 -0.1138605,0.10891 -0.1782164,0.16337 -0.1782164,0.21947 0,0.0495 0.028053,0.071 0.084158,0.071 z" />
    <path
       inkscape:connector-curvature="0"
       id="path8768"
       style="font-style:normal;font-variant:normal;font-weight:normal;font-stretch:normal;font-size:medium;line-height:1.15358329px;font-family:'Courier 10 Pitch';-inkscape-font-specification:'Courier 10 Pitch';font-variant-ligatures:normal;font-variant-caps:normal;font-variant-numeric:normal;font-feature-settings:normal;text-align:center;letter-spacing:0px;word-spacing:0px;writing-mode:lr-tb;text-anchor:middle;fill:#000000;fill-opacity:1;stroke:none;stroke-width:0.12376138px;stroke-linecap:butt;stroke-linejoin:miter;stroke-opacity:1"
       d="m 7.7571806,292.72046 c 0.1122104,-0.0396 0.1633651,-0.11221 0.1633651,-0.22442 0,-0.14356 -0.118811,-0.26403 -0.2920769,-0.26403 -0.163365,0 -0.2904267,0.0924 -0.2904267,0.14687 0,0.0297 0.023102,0.0512 0.052805,0.0512 0.049505,0 0.1105601,-0.0858 0.229371,-0.0858 0.095709,0 0.1666654,0.071 0.1666654,0.17492 0,0.0792 -0.056105,0.14026 -0.1402629,0.15346 -0.084158,0.0132 -0.10891,0.002 -0.10891,0.0611 0,0.071 0.042904,0.0479 0.1254115,0.0627 0.097359,0.0181 0.1551143,0.0891 0.1551143,0.18481 0,0.11386 -0.085808,0.19637 -0.2161699,0.19637 -0.1287119,0 -0.2112194,-0.0825 -0.2590738,-0.0825 -0.033003,0 -0.059405,0.0231 -0.059405,0.0561 0,0.0726 0.141913,0.15016 0.3135288,0.15016 0.2161699,0 0.3580829,-0.13696 0.3580829,-0.32013 0,-0.13036 -0.070956,-0.22607 -0.1980182,-0.26072 z" />
    <path
       inkscape:connector-curvature="0"
       id="path8770"
       style="font-style:normal;font-variant:normal;font-weight:normal;font-stretch:normal;font-size:medium;line-height:1.15358329px;font-family:'Courier 10 Pitch';-inkscape-font-specification:'Courier 10 Pitch';font-variant-ligatures:normal;font-variant-caps:normal;font-variant-numeric:normal;font-feature-settings:normal;text-align:center;letter-spacing:0px;word-spacing:0px;writing-mode:lr-tb;text-anchor:middle;fill:#000000;fill-opacity:1;stroke:none;stroke-width:0.12376138px;stroke-linecap:butt;stroke-linejoin:miter;stroke-opacity:1"
       d="m 0.68308346,295.77654 c 0.19636806,0 0.33003034,-0.19307 0.33003034,-0.53465 0,-0.34158 -0.13366228,-0.53465 -0.33003034,-0.53465 -0.19636805,0 -0.33003034,0.19307 -0.33003034,0.53465 0,0.34158 0.13366229,0.53465 0.33003034,0.53465 z m 0,-0.95379 c 0.11881093,0 0.19471791,0.14192 0.19471791,0.41914 0,0.27723 -0.075907,0.42079 -0.19471791,0.42079 -0.11881092,0 -0.19636805,-0.14356 -0.19636805,-0.42079 0,-0.27722 0.0775571,-0.41914 0.19636805,-0.41914 z" />
    <path
       inkscape:connector-curvature="0"
       id="path8772"
       style="font-style:normal;font-variant:normal;font-weight:normal;font-stretch:normal;font-size:medium;line-height:1.15358329px;font-family:'Courier 10 Pitch';-inkscape-font-specification:'Courier 10 Pitch';font-variant-ligatures:normal;font-variant-caps:normal;font-variant-numeric:normal;font-feature-settings:normal;text-align:center;letter-spacing:0px;word-spacing:0px;writing-mode:lr-tb;text-anchor:middle;fill:#000000;fill-opacity:1;stroke:none;stroke-width:0.12376138px;stroke-linecap:butt;stroke-linejoin:miter;stroke-opacity:1"
       d="M 1.6691523,295.63628 H 1.5288894 v -0.35644 h 0.2128695 c 0,0.008 0,0.0165 0,0.0231 0,0.0693 0.00825,0.099 0.051155,0.099 0.039604,0 0.049505,-0.0215 0.049505,-0.071 v -0.20462 c 0,-0.0445 -0.014851,-0.0644 -0.049505,-0.0644 -0.042904,0 -0.051155,0.0297 -0.051155,0.099 0,0.007 0,0.0149 0,0.0215 H 1.5288894 v -0.27228 h 0.4372902 v 0.11551 c 0,0.0149 0,0.0231 0,0.0264 0,0.0495 0.014851,0.071 0.057755,0.071 0.037953,0 0.056105,-0.0198 0.056105,-0.0561 v -0.20791 c 0,-0.0429 -0.019802,-0.0644 -0.056105,-0.0644 H 1.3110693 c -0.036303,0 -0.056105,0.0198 -0.056105,0.0578 0,0.0396 0.019802,0.0577 0.064356,0.0577 0.00495,0 0.014851,0 0.031353,0 h 0.051155 v 0.72607 H 1.350673 c -0.014851,0 -0.023102,0 -0.026403,0 -0.049504,0 -0.069306,0.0132 -0.069306,0.0561 0,0.038 0.019802,0.0578 0.056105,0.0578 h 0.3976866 c 0.036303,0 0.056105,-0.0198 0.056105,-0.0578 0,-0.0396 -0.019802,-0.0561 -0.064356,-0.0561 -0.00495,0 -0.014851,0 -0.031353,0 z" />
    <path
       inkscape:connector-curvature="0"
       id="path8774"
       style="font-style:normal;font-variant:normal;font-weight:normal;font-stretch:normal;font-size:medium;line-height:1.15358329px;font-family:'Courier 10 Pitch';-inkscape-font-specification:'Courier 10 Pitch';font-variant-ligatures:normal;font-variant-caps:normal;font-variant-numeric:normal;font-feature-settings:normal;text-align:center;letter-spacing:0px;word-spacing:0px;writing-mode:lr-tb;text-anchor:middle;fill:#000000;fill-opacity:1;stroke:none;stroke-width:0.12376138px;stroke-linecap:butt;stroke-linejoin:miter;stroke-opacity:1"
       d="m 3.6610917,295.77654 c 0.1963681,0 0.3300304,-0.19307 0.3300304,-0.53465 0,-0.34158 -0.1336623,-0.53465 -0.3300304,-0.53465 -0.196368,0 -0.3300303,0.19307 -0.3300303,0.53465 0,0.34158 0.1336623,0.53465 0.3300303,0.53465 z m 0,-0.95379 c 0.118811,0 0.1947179,0.14192 0.1947179,0.41914 0,0.27723 -0.075907,0.42079 -0.1947179,0.42079 -0.1188109,0 -0.196368,-0.14356 -0.196368,-0.42079 0,-0.27722 0.077557,-0.41914 0.196368,-0.41914 z" />
    <path
       inkscape:connector-curvature="0"
       id="path8776"
       style="font-style:normal;font-variant:normal;font-weight:normal;font-stretch:normal;font-size:medium;line-height:1.15358329px;font-family:'Courier 10 Pitch';-inkscape-font-specification:'Courier 10 Pitch';font-variant-ligatures:normal;font-variant-caps:normal;font-variant-numeric:normal;font-feature-settings:normal;text-align:center;letter-spacing:0px;word-spacing:0px;writing-mode:lr-tb;text-anchor:middle;fill:#000000;fill-opacity:1;stroke:none;stroke-width:0.12376138px;stroke-linecap:butt;stroke-linejoin:miter;stroke-opacity:1"
       d="m 4.9078844,294.8211 c -0.077557,-0.033 -0.1501638,-0.0512 -0.2244206,-0.0512 -0.2673246,0 -0.4620425,0.21617 -0.4620425,0.50329 0,0.29538 0.1980182,0.5 0.4587422,0.5 0.1039596,0 0.1897675,-0.0281 0.2788756,-0.0858 0.059405,-0.038 0.090758,-0.0643 0.090758,-0.10066 0,-0.033 -0.024752,-0.0577 -0.059406,-0.0577 -0.028053,0 -0.061056,0.0363 -0.1138604,0.066 -0.062706,0.0347 -0.130362,0.0528 -0.1897675,0.0528 -0.1798665,0 -0.3184793,-0.14026 -0.3184793,-0.37459 0,-0.25412 0.1287119,-0.39438 0.315179,-0.39438 0.1072599,0 0.1897675,0.0594 0.2095693,0.13531 0.018152,0.0726 0.0099,0.11221 0.079207,0.11221 0.047854,0 0.057755,-0.0214 0.057755,-0.0644 0,-0.0115 -0.0033,-0.0759 -0.0033,-0.19966 0,-0.0561 -0.0033,-0.0809 -0.059406,-0.0809 -0.031353,0 -0.047854,0.0115 -0.059405,0.0396 z" />
    <path
       inkscape:connector-curvature="0"
       id="path8778"
       style="font-style:normal;font-variant:normal;font-weight:normal;font-stretch:normal;font-size:medium;line-height:1.15358329px;font-family:'Courier 10 Pitch';-inkscape-font-specification:'Courier 10 Pitch';font-variant-ligatures:normal;font-variant-caps:normal;font-variant-numeric:normal;font-feature-settings:normal;text-align:center;letter-spacing:0px;word-spacing:0px;writing-mode:lr-tb;text-anchor:middle;fill:#000000;fill-opacity:1;stroke:none;stroke-width:0.12376138px;stroke-linecap:butt;stroke-linejoin:miter;stroke-opacity:1"
       d="m 6.7645115,295.19569 c 0.1122104,-0.0396 0.1633651,-0.11221 0.1633651,-0.22442 0,-0.14357 -0.118811,-0.26403 -0.2920769,-0.26403 -0.163365,0 -0.2904267,0.0924 -0.2904267,0.14687 0,0.0297 0.023102,0.0512 0.052805,0.0512 0.049504,0 0.1105601,-0.0858 0.229371,-0.0858 0.095709,0 0.1666654,0.071 0.1666654,0.17492 0,0.0792 -0.056105,0.14026 -0.1402629,0.15346 -0.084158,0.0132 -0.10891,0.002 -0.10891,0.0611 0,0.0709 0.042904,0.0478 0.1254115,0.0627 0.097359,0.0182 0.1551142,0.0891 0.1551142,0.18482 0,0.11386 -0.085808,0.19637 -0.2161698,0.19637 -0.1287119,0 -0.2112194,-0.0825 -0.2590738,-0.0825 -0.033003,0 -0.059406,0.0231 -0.059406,0.0561 0,0.0726 0.141913,0.15016 0.3135288,0.15016 0.2161699,0 0.3580829,-0.13696 0.3580829,-0.32013 0,-0.13036 -0.070957,-0.22607 -0.1980182,-0.26072 z" />
    <path
       inkscape:connector-curvature="0"
       id="path8780"
       style="font-style:normal;font-variant:normal;font-weight:normal;font-stretch:normal;font-size:medium;line-height:1.15358329px;font-family:'Courier 10 Pitch';-inkscape-font-specification:'Courier 10 Pitch';font-variant-ligatures:normal;font-variant-caps:normal;font-variant-numeric:normal;font-feature-settings:normal;text-align:center;letter-spacing:0px;word-spacing:0px;writing-mode:lr-tb;text-anchor:middle;fill:#000000;fill-opacity:1;stroke:none;stroke-width:0.12376138px;stroke-linecap:butt;stroke-linejoin:miter;stroke-opacity:1"
       d="m 7.5063576,294.91021 -0.2739252,0.72607 c -0.0066,0 -0.013201,0 -0.019802,0 -0.054455,0 -0.075907,0.0132 -0.075907,0.0561 0,0.0495 0.023102,0.0578 0.084158,0.0578 h 0.2112194 c 0.062706,0 0.094059,-0.005 0.094059,-0.0578 0,-0.0462 -0.029703,-0.0561 -0.092409,-0.0561 h -0.077557 l 0.069306,-0.19142 h 0.4092377 l 0.077557,0.19142 h -0.074257 c -0.062706,0 -0.090758,0.01 -0.090758,0.0561 0,0.0528 0.031353,0.0578 0.095709,0.0578 h 0.2194702 c 0.052805,0 0.072607,-0.0115 0.072607,-0.0578 0,-0.0446 -0.019802,-0.0561 -0.075907,-0.0561 -0.00495,0 -0.00825,0 -0.013201,0 l -0.315179,-0.78713 c -0.021452,-0.0528 -0.042904,-0.0545 -0.089108,-0.0545 H 7.4122989 c -0.075907,0 -0.1122103,0 -0.1122103,0.0578 0,0.0446 0.028053,0.0577 0.089108,0.0577 z m -0.041254,0.42739 0.1551142,-0.42739 0.1749161,0.42739 z" />
  </g>
</svg>
