<?xml version="1.0" encoding="UTF-8" standalone="no"?>
<!-- Created with Inkscape (http://www.inkscape.org/) -->

<svg
   xmlns:dc="http://purl.org/dc/elements/1.1/"
   xmlns:cc="http://creativecommons.org/ns#"
   xmlns:rdf="http://www.w3.org/1999/02/22-rdf-syntax-ns#"
   xmlns:svg="http://www.w3.org/2000/svg"
   xmlns="http://www.w3.org/2000/svg"
   xmlns:sodipodi="http://sodipodi.sourceforge.net/DTD/sodipodi-0.dtd"
   xmlns:inkscape="http://www.inkscape.org/namespaces/inkscape"
   width="32"
   height="32"
   viewBox="0 0 8.4666665 8.4666669"
   version="1.1"
   id="svg8"
   sodipodi:docname="content-group.svg"
   inkscape:version="0.92.1 r15371">
  <defs
     id="defs2" />
  <sodipodi:namedview
     id="base"
     pagecolor="#ffffff"
     bordercolor="#666666"
     borderopacity="1.0"
     inkscape:pageopacity="0.0"
     inkscape:pageshadow="2"
     inkscape:zoom="9.6796782"
     inkscape:cx="-20.058632"
     inkscape:cy="-8.2640083"
     inkscape:document-units="mm"
     inkscape:current-layer="layer1"
     showgrid="false"
     units="px"
     inkscape:window-width="1962"
     inkscape:window-height="1478"
     inkscape:window-x="399"
     inkscape:window-y="542"
     inkscape:window-maximized="0"
     inkscape:snap-global="false" />
  <metadata
     id="metadata5">
    <rdf:RDF>
      <cc:Work
         rdf:about="">
        <dc:format>image/svg+xml</dc:format>
        <dc:type
           rdf:resource="http://purl.org/dc/dcmitype/StillImage" />
        <dc:title></dc:title>
      </cc:Work>
    </rdf:RDF>
  </metadata>
  <g
     inkscape:label="Calque 1"
     inkscape:groupmode="layer"
     id="layer1"
     transform="translate(0,-288.53332)">
    <g
       id="g5976"
       transform="matrix(0.00413411,0,0,-0.00413411,0.52917077,295.41248)">
      <path
         id="path5974"
         d="M 1792,288 V -32 q 0,-40 -28,-68 -28,-28 -68,-28 h -320 q -40,0 -68,28 -28,28 -28,68 v 320 q 0,40 28,68 28,28 68,28 h 96 V 576 H 960 V 384 h 96 q 40,0 68,-28 28,-28 28,-68 V -32 q 0,-40 -28,-68 -28,-28 -68,-28 H 736 q -40,0 -68,28 -28,28 -28,68 v 320 q 0,40 28,68 28,28 68,28 h 96 V 576 H 320 V 384 h 96 q 40,0 68,-28 28,-28 28,-68 V -32 q 0,-40 -28,-68 -28,-28 -68,-28 H 96 q -40,0 -68,28 -28,28 -28,68 v 320 q 0,40 28,68 28,28 68,28 h 96 v 192 q 0,52 38,90 38,38 90,38 h 512 v 192 h -96 q -40,0 -68,28 -28,28 -28,68 v 320 q 0,40 28,68 28,28 68,28 h 320 q 40,0 68,-28 28,-28 28,-68 V 992 q 0,-40 -28,-68 -28,-28 -68,-28 H 960 V 704 h 512 q 52,0 90,-38 38,-38 38,-90 V 384 h 96 q 40,0 68,-28 28,-28 28,-68 z"
         inkscape:connector-curvature="0"
         style="fill:currentColor" />
    </g>
  </g>
</svg>
