<?xml version="1.0" encoding="UTF-8" standalone="no"?>
<!-- Created with Inkscape (http://www.inkscape.org/) -->

<svg
   xmlns:dc="http://purl.org/dc/elements/1.1/"
   xmlns:cc="http://creativecommons.org/ns#"
   xmlns:rdf="http://www.w3.org/1999/02/22-rdf-syntax-ns#"
   xmlns:svg="http://www.w3.org/2000/svg"
   xmlns="http://www.w3.org/2000/svg"
   xmlns:sodipodi="http://sodipodi.sourceforge.net/DTD/sodipodi-0.dtd"
   xmlns:inkscape="http://www.inkscape.org/namespaces/inkscape"
   width="32"
   height="32"
   id="svg3274"
   sodipodi:version="0.32"
   inkscape:version="0.92.1 r15371"
   version="1.0"
   sodipodi:docname="content-ceefax.svg"
   inkscape:output_extension="org.inkscape.output.svg.inkscape">
  <defs
     id="defs3276">
    <inkscape:perspective
       sodipodi:type="inkscape:persp3d"
       inkscape:vp_x="0 : 526.18109 : 1"
       inkscape:vp_y="0 : 1000 : 0"
       inkscape:vp_z="744.09448 : 526.18109 : 1"
       inkscape:persp3d-origin="372.04724 : 350.78739 : 1"
       id="perspective3282" />
    <inkscape:perspective
       id="perspective3362"
       inkscape:persp3d-origin="372.04724 : 350.78739 : 1"
       inkscape:vp_z="744.09448 : 526.18109 : 1"
       inkscape:vp_y="0 : 1000 : 0"
       inkscape:vp_x="0 : 526.18109 : 1"
       sodipodi:type="inkscape:persp3d" />
    <inkscape:perspective
       id="perspective3464"
       inkscape:persp3d-origin="372.04724 : 350.78739 : 1"
       inkscape:vp_z="744.09448 : 526.18109 : 1"
       inkscape:vp_y="0 : 1000 : 0"
       inkscape:vp_x="0 : 526.18109 : 1"
       sodipodi:type="inkscape:persp3d" />
    <inkscape:perspective
       id="perspective3531"
       inkscape:persp3d-origin="372.04724 : 350.78739 : 1"
       inkscape:vp_z="744.09448 : 526.18109 : 1"
       inkscape:vp_y="0 : 1000 : 0"
       inkscape:vp_x="0 : 526.18109 : 1"
       sodipodi:type="inkscape:persp3d" />
    <inkscape:perspective
       id="perspective3615"
       inkscape:persp3d-origin="372.04724 : 350.78739 : 1"
       inkscape:vp_z="744.09448 : 526.18109 : 1"
       inkscape:vp_y="0 : 1000 : 0"
       inkscape:vp_x="0 : 526.18109 : 1"
       sodipodi:type="inkscape:persp3d" />
  </defs>
  <sodipodi:namedview
     id="base"
     pagecolor="#ffffff"
     bordercolor="#666666"
     borderopacity="1.0"
     gridtolerance="10000"
     guidetolerance="10"
     objecttolerance="10"
     inkscape:pageopacity="0.0"
     inkscape:pageshadow="2"
     inkscape:zoom="1.979899"
     inkscape:cx="28.744045"
     inkscape:cy="-16.980165"
     inkscape:document-units="px"
     inkscape:current-layer="g3663"
     showgrid="true"
     inkscape:window-width="2147"
     inkscape:window-height="1204"
     inkscape:window-x="649"
     inkscape:window-y="204"
     showguides="true"
     inkscape:window-maximized="0" />
  <metadata
     id="metadata3279">
    <rdf:RDF>
      <cc:Work
         rdf:about="">
        <dc:format>image/svg+xml</dc:format>
        <dc:type
           rdf:resource="http://purl.org/dc/dcmitype/StillImage" />
        <dc:title></dc:title>
      </cc:Work>
    </rdf:RDF>
  </metadata>
  <g
     inkscape:label="Layer 1"
     inkscape:groupmode="layer"
     id="layer1"
     transform="translate(-233,-615.36218)">
    <g
       id="g3663">
      <path
         sodipodi:nodetypes="ccccc"
         id="rect3655"
         d="m 233,615.36218 h 32.00001 v 32 H 233 Z"
         style="fill:#0000f8;fill-opacity:1;fill-rule:evenodd;stroke:none;stroke-width:0;stroke-miterlimit:4;stroke-opacity:1"
         inkscape:connector-curvature="0" />
      <g
         style="fill:#ffff00;fill-opacity:1"
         transform="matrix(0.10666667,0,0,0.10666667,208.14667,574.57688)"
         id="g3645">
        <path
           id="rect3372"
           style="fill:#ffff00;fill-opacity:1;fill-rule:evenodd;stroke:none;stroke-width:0;stroke-miterlimit:4;stroke-opacity:1"
           d="m 233,471.36218 h 75 v 47 h -75 z m 44,7 h 28 v 6 h -17 v 19 h 17 v 5 h -28 z"
           inkscape:connector-curvature="0" />
        <path
           id="path3376"
           style="fill:#ffff00;fill-opacity:1;fill-rule:evenodd;stroke:none;stroke-width:1px;stroke-linecap:butt;stroke-linejoin:miter;stroke-opacity:1"
           d="m 322,490.36218 h 20 v 7 h -11 v 8 h 7 v 5 h -7 v 6 h 11 v 7 h -20 z m -17,33 h 11 v -39 h 32 v 45 h -43 z"
           inkscape:connector-curvature="0" />
        <path
           id="path3381"
           style="fill:#ffff00;fill-opacity:1;fill-rule:evenodd;stroke:none;stroke-width:1px;stroke-linecap:butt;stroke-linejoin:miter;stroke-opacity:1"
           d="m 359,508.36218 v -31 h 23 v 7 h -12 v 7 h 6 v 5 h -6 v 7 h 12 v 5 z m -17,-31 v -6 h 45 v 45 h -32 v -39 z"
           inkscape:connector-curvature="0" />
        <path
           id="path3386"
           style="fill:#ffff00;fill-opacity:1;fill-rule:evenodd;stroke:none;stroke-width:1px;stroke-linecap:butt;stroke-linejoin:miter;stroke-opacity:1"
           d="m 397,522.36218 v -34 h 22 v 9 h -11 v 6 h 7 v 5 h -7 v 14 z m -15,5 v -5 h 11 v -38 h 32 v 43 z"
           inkscape:connector-curvature="0" />
        <path
           id="path3391"
           style="fill:#ffff00;fill-opacity:1;fill-rule:evenodd;stroke:none;stroke-width:1px;stroke-linecap:butt;stroke-linejoin:miter;stroke-opacity:1"
           d="m 436,508.36218 v -31 h 22 v 31 h -5 v -11 h -6 v 11 z m -6,8 v -39 h -11 v -6 h 43 v 45 z m 17,-28 v -4 h 4 v 4 z"
           inkscape:connector-curvature="0" />
        <path
           id="path3398"
           style="fill:#ffff00;fill-opacity:1;fill-rule:evenodd;stroke:none;stroke-width:1px;stroke-linecap:butt;stroke-linejoin:miter;stroke-opacity:1"
           d="m 473,522.36218 v -14 h 6 v -5 h -6 v -15 h 12 v 15 h 5 v -15 h 12 v 15 h -6 v 5 h 6 v 14 h -12 v -14 h -5 v 14 z m -15,5 v -5 h 10 v -38 h 65 v 43 z"
           inkscape:connector-curvature="0" />
      </g>
      <rect
         y="635.62885"
         x="242.06667"
         height="4.2666669"
         width="12.48"
         id="rect3653"
         style="opacity:1;fill:#000000;fill-opacity:1;fill-rule:evenodd;stroke:none;stroke-width:0;stroke-miterlimit:4;stroke-dasharray:none;stroke-opacity:1" />
      <g
         style="fill:#ffffff;fill-opacity:1"
         id="g3657"
         transform="matrix(0.10666667,0,0,0.10666667,208.14667,574.57688)">
        <path
           d="m 328.5,605.36218 v -22.5 H 351 v 6.75 h -4.5 v 4.5 h 4.5 v 11.25 z m 9,-4.5 v -6.75 h 4.5 v 6.75 z m 0,-11.25 v -3.375 h 4.5 v 3.375 z m -13.5,-11.25 h 31.5 v 30.375 H 324 Z"
           style="fill:#ffffff;fill-opacity:1;fill-rule:evenodd;stroke:none;stroke-width:1px;stroke-linecap:butt;stroke-linejoin:miter;stroke-opacity:1"
           id="path3639"
           inkscape:connector-curvature="0" />
        <path
           id="path3641"
           style="fill:#ffffff;fill-opacity:1;fill-rule:evenodd;stroke:none;stroke-width:1px;stroke-linecap:butt;stroke-linejoin:miter;stroke-opacity:1"
           d="m 364.5,605.36218 v -22.5 H 387 v 6.75 h -4.5 v 4.5 h 4.5 v 11.25 z m 9,-4.5 v -6.75 h 4.5 v 6.75 z m 0,-11.25 v -3.375 h 4.5 v 3.375 z m -13.5,-11.25 h 31.5 v 30.375 H 360 Z"
           inkscape:connector-curvature="0" />
        <path
           d="m 423,605.36218 h -22.5 v -22.5 H 423 v 6.75 h -9 v -3.375 h -4.5 v 14.625 h 4.5 v -3.375 h 9 z m -27,3.375 v -30.375 h 31.5 v 30.375 z"
           style="fill:#ffffff;fill-opacity:1;fill-rule:evenodd;stroke:none;stroke-width:1px;stroke-linecap:butt;stroke-linejoin:miter;stroke-opacity:1"
           id="path3643"
           inkscape:connector-curvature="0" />
      </g>
    </g>
  </g>
</svg>
