<?xml version="1.0" encoding="UTF-8" standalone="no"?>
<svg
   xmlns:dc="http://purl.org/dc/elements/1.1/"
   xmlns:cc="http://creativecommons.org/ns#"
   xmlns:rdf="http://www.w3.org/1999/02/22-rdf-syntax-ns#"
   xmlns:svg="http://www.w3.org/2000/svg"
   xmlns="http://www.w3.org/2000/svg"
   xmlns:sodipodi="http://sodipodi.sourceforge.net/DTD/sodipodi-0.dtd"
   xmlns:inkscape="http://www.inkscape.org/namespaces/inkscape"
   height="32"
   width="32"
   version="1.1"
   viewBox="0 0 30 30.000001"
   id="svg4"
   sodipodi:docname="drcs-create.svg"
   inkscape:version="0.92.1 r15371">
  <metadata
     id="metadata10">
    <rdf:RDF>
      <cc:Work
         rdf:about="">
        <dc:format>image/svg+xml</dc:format>
        <dc:type
           rdf:resource="http://purl.org/dc/dcmitype/StillImage" />
        <dc:title></dc:title>
      </cc:Work>
    </rdf:RDF>
  </metadata>
  <defs
     id="defs8" />
  <sodipodi:namedview
     pagecolor="#ffffff"
     bordercolor="#666666"
     borderopacity="1"
     objecttolerance="10"
     gridtolerance="10"
     guidetolerance="10"
     inkscape:pageopacity="0"
     inkscape:pageshadow="2"
     inkscape:window-width="2077"
     inkscape:window-height="1479"
     id="namedview6"
     showgrid="false"
     units="px"
     inkscape:zoom="15.698818"
     inkscape:cx="41.807905"
     inkscape:cy="14.218283"
     inkscape:window-x="991"
     inkscape:window-y="505"
     inkscape:window-maximized="0"
     inkscape:current-layer="svg4" />
  <path
     d="m 20.26524,12.48748 5.81125,5.839892 c 0.02603,0.02615 0.05742,0.04691 0.09414,0.0622 0.07343,0.03055 0.146955,0.03074 0.22055,5.33e-4 0.0368,-0.01512 0.06828,-0.03569 0.09444,-0.06172 l 1.691443,-1.683069 c 0.02655,-0.0264 0.0475,-0.05838 0.06282,-0.09588 0.03062,-0.07498 0.02986,-0.149633 -0.0024,-0.223953 -0.01608,-0.03719 -0.03769,-0.06867 -0.06482,-0.09453 l -5.954127,-5.680189 c 0.902868,-0.8939024 1.805986,-1.7875202 2.706581,-2.6836661 0.04863,-0.0484 0.106784,-0.088289 0.169515,-0.1166968 0.08374,-0.037926 0.175631,-0.05534 0.26749,-0.061413 0.11491,-0.00762 0.229732,0.00248 0.343568,0.015679 0.388029,0.044866 0.791626,0.00186 1.165053,-0.1252238 0.373426,-0.1272681 0.716622,-0.3389962 0.998077,-0.6139088 0.281424,-0.274925 0.501172,-0.613041 0.637168,-0.9833568 0.136023,-0.3703097 0.18831,-0.7728191 0.15257,-1.1617819 -0.0049,-0.053605 -0.0257,-0.106917 -0.05903,-0.1502593 -0.03333,-0.043317 -0.07918,-0.076626 -0.130344,-0.095224 -0.0512,-0.018591 -0.107748,-0.022371 -0.161092,-0.010532 -0.05335,0.011893 -0.10352,0.039475 -0.141672,0.077426 l -1.652991,1.6448339 c -0.02616,0.026028 -0.05764,0.046602 -0.09444,0.061722 -0.07359,0.030242 -0.147119,0.030056 -0.22055,-5.267e-4 -0.03672,-0.015307 -0.06811,-0.036067 -0.09414,-0.062169 l -1.31901,-1.3256246 c -0.02603,-0.026152 -0.04661,-0.057632 -0.0617,-0.094436 -0.03022,-0.07359 -0.03002,-0.1470865 5.28e-4,-0.2205523 0.01529,-0.036748 0.03604,-0.068106 0.0622,-0.094139 l 1.649412,-1.6412831 c 0.03819,-0.037988 0.06606,-0.088128 0.07819,-0.141503 0.01216,-0.053356 0.0085,-0.1100342 -0.0099,-0.1613583 -0.01843,-0.051312 -0.05165,-0.097312 -0.095,-0.1308068 -0.0433,-0.033464 -0.09669,-0.054411 -0.150323,-0.059429 -0.388185,-0.036315 -0.790006,0.015059 -1.159947,0.149931 -0.369939,0.1348289 -0.708029,0.3531564 -0.983381,0.6332125 -0.275317,0.2800066 -0.487909,0.621754 -0.616464,0.9939353 -0.12856,0.3721501 -0.17315,0.7748144 -0.130278,1.1623146 0.01242,0.1123031 0.02187,0.2256029 0.01381,0.338866 -0.0065,0.090538 -0.02408,0.1810771 -0.0619,0.2634915 -0.0283,0.061722 -0.06795,0.1188771 -0.115901,0.1665762 -0.917781,0.9132685 -1.835595,1.8265305 -2.753346,2.739799 l -4.093561,-3.9051943 -1.799979,1.7923481 3.988639,4.0082495 c -0.891535,0.887148 -1.783103,1.774327 -2.674669,2.661469 -0.04795,0.04772 -0.105304,0.08707 -0.167171,0.115082 -0.08258,0.03737 -0.173182,0.0546 -0.263756,0.06061 -0.113298,0.0075 -0.226561,-0.0025 -0.338805,-0.01543 -0.387281,-0.04481 -0.79013,-0.0025 -1.162966,0.124491 -0.372804,0.12675 -0.715595,0.337626 -0.996989,0.611548 -0.281362,0.273958 -0.501389,0.610952 -0.638068,0.980233 -0.13665,0.369287 -0.19003,0.770861 -0.155646,1.159204 0.0048,0.05366 0.02544,0.107153 0.0587,0.150619 0.03323,0.0435 0.07911,0.07697 0.130344,0.09566 0.05123,0.01866 0.107854,0.02262 0.161292,0.0107 0.05344,-0.01189 0.103691,-0.03942 0.141901,-0.07746 l 1.649412,-1.641284 c 0.02616,-0.02603 0.05764,-0.04661 0.09444,-0.06172 0.07359,-0.03025 0.147123,-0.03005 0.22055,5.27e-4 0.03674,0.0153 0.06811,0.03606 0.09414,0.0622 l 1.319044,1.325582 c 0.02603,0.02615 0.04661,0.05763 0.0617,0.09444 0.03022,0.0736 0.03002,0.147123 -5.29e-4,0.220552 -0.0153,0.03675 -0.03604,0.06812 -0.06216,0.09414 l -1.653023,1.644833 c -0.03815,0.03793 -0.06597,0.08799 -0.07812,0.141274 -0.01216,0.05329 -0.0086,0.109862 0.0098,0.161129 0.01833,0.05131 0.05143,0.09731 0.0946,0.130833 0.04313,0.03353 0.09638,0.0546 0.149928,0.05974 0.388776,0.03767 0.791564,-0.01269 1.162531,-0.14679 0.370966,-0.134208 0.710177,-0.352257 0.986464,-0.632344 0.276306,-0.280069 0.489746,-0.622218 0.61886,-0.994995 0.129089,-0.372769 0.173912,-0.776177 0.130966,-1.164397 -0.01255,-0.113258 -0.02203,-0.227555 -0.0141,-0.341767 0.0063,-0.09132 0.02381,-0.182626 0.06147,-0.265963 0.02821,-0.0624 0.06775,-0.120328 0.115743,-0.168825 0.883659,-0.892813 1.772268,-1.780705 2.663118,-2.666359 z M 9.735559,6.9567495 c -0.027261,0.025593 -0.049091,0.056826 -0.065502,0.093712 -0.032798,0.073788 -0.034357,0.1482081 -0.00476,0.223285 0.014826,0.037555 0.035335,0.069698 0.061512,0.096389 l 2.008734,2.050609 c 0.02513,0.025655 0.05535,0.04623 0.09068,0.061722 0.07066,0.030985 0.142201,0.033278 0.214669,0.00694 0.03625,-0.013135 0.06775,-0.031728 0.09447,-0.055711 L 13.09804,8.5703688 c 0.01497,-0.013386 0.02846,-0.028383 0.04055,-0.04499 0.02421,-0.033216 0.04059,-0.069896 0.04916,-0.1100593 0.0042,-0.020079 0.0063,-0.040156 0.0063,-0.060297 V 7.6004783 c 0,-0.018839 0.002,-0.03774 0.0057,-0.056579 0.0075,-0.03774 0.022,-0.072536 0.04341,-0.1044763 0.0107,-0.015988 0.02277,-0.030613 0.03614,-0.043937 l 4.56805,-4.5490591 c 0.01331,-0.013201 0.02791,-0.02516 0.04383,-0.035758 0.03185,-0.021194 0.06652,-0.035509 0.104008,-0.042946 0.01876,-0.00371 0.03753,-0.00558 0.05629,-0.00558 h 1.481877 c 0.05702,0 0.115478,-0.017847 0.163406,-0.050568 0.04793,-0.032659 0.08535,-0.080165 0.106268,-0.1340418 0.02094,-0.053852 0.02533,-0.1141556 0.01202,-0.1706415 -0.01335,-0.056455 -0.04443,-0.1090986 -0.08651,-0.1475823 L 18.925473,1.5253201 c -0.01308,-0.012025 -0.02731,-0.022743 -0.04264,-0.032224 -0.03068,-0.019087 -0.06378,-0.031853 -0.09926,-0.038546 -0.01777,-0.00311 -0.03551,-0.00496 -0.05324,-0.00496 h -2.17026 c -0.01863,0 -0.03726,0.00186 -0.05592,0.00558 -0.03725,0.00737 -0.07174,0.021503 -0.103453,0.042449 -0.01586,0.010479 -0.03042,0.022247 -0.0437,0.035323 l -4.532557,4.4677977 c -0.01328,0.013135 -0.02784,0.024851 -0.0437,0.035323 -0.03171,0.020946 -0.06619,0.035076 -0.103493,0.042387 -0.01863,0.00371 -0.03725,0.00558 -0.05588,0.00558 h -0.841533 c -0.01806,0 -0.03614,0.00186 -0.05421,0.00496 -0.0361,0.00688 -0.06969,0.020141 -0.100744,0.039847 -0.01553,0.00986 -0.02986,0.020946 -0.04304,0.033278 L 9.7351665,6.9567222 Z m 2.543687,-2.4954257 c -0.02603,-0.026152 -0.04661,-0.057632 -0.0617,-0.094436 -0.03022,-0.073596 -0.03002,-0.1470927 5.6e-4,-0.2205522 0.01526,-0.036749 0.03601,-0.068081 0.06216,-0.094139 l 1.330843,-1.3242741 c 0.02577,-0.025655 0.05665,-0.045981 0.09268,-0.06104 0.07207,-0.03018 0.144445,-0.030924 0.217148,-0.00248 0.03634,0.014315 0.06764,0.033959 0.09394,0.059058 l 0.253154,0.2415269 -1.755548,1.7305141 -0.233235,-0.2343902 z"
     id="path2"
     inkscape:connector-curvature="0"
     style="stroke-width:0.03113448" />
  <path
     inkscape:connector-curvature="0"
     id="path5134"
     style="font-style:normal;font-variant:normal;font-weight:normal;font-stretch:normal;font-size:3.69214964px;line-height:4.1536684px;font-family:Minitel;-inkscape-font-specification:Minitel;font-variant-ligatures:normal;font-variant-caps:normal;font-variant-numeric:normal;font-feature-settings:normal;text-align:start;letter-spacing:0px;word-spacing:0px;writing-mode:lr-tb;text-anchor:start;fill:#000000;fill-opacity:1;stroke:none;stroke-width:0.82251352px;stroke-linecap:butt;stroke-linejoin:miter;stroke-opacity:1"
     d="m 3.2784164,14.660706 v 2.020861 h 6.0624298 v -2.020861 z m 6.0624298,2.020861 v 6.06243 H 3.2784164 v -6.06243 H 1.2576085 v 12.124861 h 2.0208079 v -4.04157 h 6.0624298 v 4.04157 H 11.361662 V 16.681567 Z" />
</svg>
