<?xml version="1.0" encoding="UTF-8" standalone="no"?>
<!-- Created with Inkscape (http://www.inkscape.org/) -->

<svg
   xmlns:dc="http://purl.org/dc/elements/1.1/"
   xmlns:cc="http://creativecommons.org/ns#"
   xmlns:rdf="http://www.w3.org/1999/02/22-rdf-syntax-ns#"
   xmlns:svg="http://www.w3.org/2000/svg"
   xmlns="http://www.w3.org/2000/svg"
   xmlns:sodipodi="http://sodipodi.sourceforge.net/DTD/sodipodi-0.dtd"
   xmlns:inkscape="http://www.inkscape.org/namespaces/inkscape"
   width="32"
   height="32"
   viewBox="0 0 8.4666665 8.4666669"
   version="1.1"
   id="svg8"
   sodipodi:docname="drcs-std-g0.svg"
   inkscape:version="0.92.1 r15371">
  <defs
     id="defs2" />
  <sodipodi:namedview
     id="base"
     pagecolor="#ffffff"
     bordercolor="#666666"
     borderopacity="1.0"
     inkscape:pageopacity="0.0"
     inkscape:pageshadow="2"
     inkscape:zoom="16"
     inkscape:cx="-0.445816"
     inkscape:cy="-1.5367053"
     inkscape:document-units="mm"
     inkscape:current-layer="layer1"
     showgrid="false"
     units="px"
     inkscape:window-width="1962"
     inkscape:window-height="1478"
     inkscape:window-x="1601"
     inkscape:window-y="510"
     inkscape:window-maximized="0"
     inkscape:snap-global="true" />
  <metadata
     id="metadata5">
    <rdf:RDF>
      <cc:Work
         rdf:about="">
        <dc:format>image/svg+xml</dc:format>
        <dc:type
           rdf:resource="http://purl.org/dc/dcmitype/StillImage" />
        <dc:title></dc:title>
      </cc:Work>
    </rdf:RDF>
  </metadata>
  <g
     inkscape:label="Calque 1"
     inkscape:groupmode="layer"
     id="layer1"
     transform="translate(0,-288.53332)">
    <g
       aria-label="STD"
       style="font-style:normal;font-variant:normal;font-weight:normal;font-stretch:normal;font-size:1.93287003px;line-height:2.89930511px;font-family:Minitel;-inkscape-font-specification:Minitel;font-variant-ligatures:normal;font-variant-caps:normal;font-variant-numeric:normal;font-feature-settings:normal;text-align:end;letter-spacing:0px;word-spacing:0px;writing-mode:lr-tb;text-anchor:end;fill:#000000;fill-opacity:1;stroke:none;stroke-width:0.14496525px;stroke-linecap:butt;stroke-linejoin:miter;stroke-opacity:1"
       id="text4507">
      <path
         d="m 4.1078766,290.67584 q 0.1382889,0 0.2345972,-0.0321 0.096308,-0.0321 0.1407584,-0.084 0.046919,-0.0519 0.064205,-0.10125 0.019756,-0.0519 0.019756,-0.10865 0,-0.20496 -0.3309056,-0.2914 l -0.4469694,-0.11853 q -0.3531306,-0.0914 -0.3531306,-0.4198 0,-0.24448 0.1703917,-0.38524 0.1728611,-0.14323 0.4691944,-0.14323 0.31115,0 0.4840111,0.14817 0.1728612,0.1457 0.1753306,0.40993 H 4.5178044 q -0.00247,-0.17533 -0.1185334,-0.26917 -0.1160638,-0.0963 -0.3309055,-0.0963 -0.1827389,0 -0.2938639,0.084 -0.1086556,0.084 -0.1086556,0.21978 0,0.10372 0.066675,0.16299 0.066675,0.0593 0.2296584,0.10371 l 0.4519083,0.12101 q 0.1827389,0.0494 0.2815167,0.16792 0.1012472,0.11853 0.1012472,0.28398 0,0.0716 -0.019756,0.14323 -0.017286,0.0692 -0.066675,0.1457 -0.049389,0.0741 -0.1259417,0.13088 -0.076553,0.0568 -0.2049639,0.0938 -0.1259417,0.037 -0.2864556,0.037 -0.1012472,0 -0.1950861,-0.0173 -0.091369,-0.0148 -0.1876778,-0.0568 -0.096308,-0.0445 -0.1654528,-0.11113 -0.069144,-0.0691 -0.1160638,-0.18274 -0.04445,-0.11359 -0.04692,-0.26176 H 3.599171 v 0.0123 q 0,0.0765 0.022225,0.14323 0.024695,0.0667 0.076553,0.13088 0.054328,0.0642 0.1580445,0.10371 0.1061861,0.0371 0.2518833,0.0371 z"
         style="font-style:normal;font-variant:normal;font-weight:normal;font-stretch:normal;font-size:2.46944451px;font-family:FreeSans;-inkscape-font-specification:FreeSans;text-align:end;text-anchor:end;stroke-width:0.14496525px"
         id="path4577" />
      <path
         d="m 5.8092467,289.2238 v 1.59773 H 5.5795884 V 289.2238 H 4.9869217 v -0.20249 H 6.399444 v 0.20249 z"
         style="font-style:normal;font-variant:normal;font-weight:normal;font-stretch:normal;font-size:2.46944451px;font-family:FreeSans;-inkscape-font-specification:FreeSans;text-align:end;text-anchor:end;stroke-width:0.14496525px"
         id="path4579" />
      <path
         d="m 6.6730894,290.82153 v -1.80022 h 0.693914 q 0.3432527,0 0.5383389,0.23953 0.1950861,0.23954 0.1950861,0.65935 0,0.4198 -0.1975556,0.66181 -0.1950861,0.23953 -0.5358694,0.23953 z m 0.2296584,-0.20249 h 0.4247444 q 0.2667001,0 0.4049889,-0.1778 0.1382889,-0.1778 0.1382889,-0.51858 0,-0.34326 -0.1382889,-0.52106 -0.1382888,-0.1778 -0.4049889,-0.1778 H 6.9027478 Z"
         style="font-style:normal;font-variant:normal;font-weight:normal;font-stretch:normal;font-size:2.46944451px;font-family:FreeSans;-inkscape-font-specification:FreeSans;text-align:end;text-anchor:end;stroke-width:0.14496525px"
         id="path4581" />
    </g>
    <g
       transform="matrix(0.74150268,0,0,0.74150268,-0.93093589,77.14519)"
       aria-label="A"
       style="font-style:normal;font-variant:normal;font-weight:normal;font-stretch:normal;font-size:7.38414288px;line-height:8.30716038px;font-family:Minitel;-inkscape-font-specification:Minitel;font-variant-ligatures:normal;font-variant-caps:normal;font-variant-numeric:normal;font-feature-settings:normal;text-align:center;letter-spacing:0px;word-spacing:0px;writing-mode:lr-tb;text-anchor:middle;fill:#000000;fill-opacity:1;stroke:none;stroke-width:0.37568828px;stroke-linecap:butt;stroke-linejoin:miter;stroke-opacity:1"
       id="text5024">
      <path
         inkscape:connector-curvature="0"
         d="m 2.8488065,289.5361 v 0.92302 h 2.7690536 v -0.92302 z m 2.7690536,0.92302 v 2.76905 H 2.8488065 v -2.76905 H 1.9257886 v 5.5381 h 0.9230179 v -1.84603 h 2.7690536 v 1.84603 h 0.9230178 v -5.5381 z"
         style="font-size:7.38414288px;line-height:8.30716038px;text-align:start;text-anchor:start;stroke-width:0.37568828px"
         id="path5693" />
    </g>
  </g>
</svg>
