<?xml version="1.0" encoding="UTF-8" standalone="no"?>
<!-- Created with Inkscape (http://www.inkscape.org/) -->

<svg
   xmlns:dc="http://purl.org/dc/elements/1.1/"
   xmlns:cc="http://creativecommons.org/ns#"
   xmlns:rdf="http://www.w3.org/1999/02/22-rdf-syntax-ns#"
   xmlns:svg="http://www.w3.org/2000/svg"
   xmlns="http://www.w3.org/2000/svg"
   xmlns:sodipodi="http://sodipodi.sourceforge.net/DTD/sodipodi-0.dtd"
   xmlns:inkscape="http://www.inkscape.org/namespaces/inkscape"
   width="32"
   height="32"
   viewBox="0 0 8.4666665 8.4666669"
   version="1.1"
   id="svg8"
   sodipodi:docname="drcs-drcs-g0.svg"
   inkscape:version="0.92.1 r15371">
  <defs
     id="defs2" />
  <sodipodi:namedview
     id="base"
     pagecolor="#ffffff"
     bordercolor="#666666"
     borderopacity="1.0"
     inkscape:pageopacity="0.0"
     inkscape:pageshadow="2"
     inkscape:zoom="16"
     inkscape:cx="-11.945816"
     inkscape:cy="-1.5367053"
     inkscape:document-units="mm"
     inkscape:current-layer="layer1"
     showgrid="false"
     units="px"
     inkscape:window-width="1962"
     inkscape:window-height="1478"
     inkscape:window-x="1601"
     inkscape:window-y="510"
     inkscape:window-maximized="0"
     inkscape:snap-global="true" />
  <metadata
     id="metadata5">
    <rdf:RDF>
      <cc:Work
         rdf:about="">
        <dc:format>image/svg+xml</dc:format>
        <dc:type
           rdf:resource="http://purl.org/dc/dcmitype/StillImage" />
        <dc:title></dc:title>
      </cc:Work>
    </rdf:RDF>
  </metadata>
  <g
     inkscape:label="Calque 1"
     inkscape:groupmode="layer"
     id="layer1"
     transform="translate(0,-288.53332)">
    <g
       aria-label="DRCS"
       style="font-style:normal;font-variant:normal;font-weight:normal;font-stretch:normal;font-size:1.93287003px;line-height:2.89930511px;font-family:Minitel;-inkscape-font-specification:Minitel;font-variant-ligatures:normal;font-variant-caps:normal;font-variant-numeric:normal;font-feature-settings:normal;text-align:end;letter-spacing:0px;word-spacing:0px;writing-mode:lr-tb;text-anchor:end;fill:#000000;fill-opacity:1;stroke:none;stroke-width:0.14496525px;stroke-linecap:butt;stroke-linejoin:miter;stroke-opacity:1"
       id="text4507">
      <path
         d="m 1.5268055,290.82153 v -1.80022 h 0.6939139 q 0.3432528,0 0.5383389,0.23953 0.1950861,0.23954 0.1950861,0.65935 0,0.4198 -0.1975556,0.66181 -0.1950861,0.23953 -0.5358694,0.23953 z m 0.2296583,-0.20249 h 0.4247445 q 0.2667,0 0.4049889,-0.1778 0.1382889,-0.1778 0.1382889,-0.51858 0,-0.34326 -0.1382889,-0.52106 -0.1382889,-0.1778 -0.4049889,-0.1778 H 1.7564638 Z"
         style="font-style:normal;font-variant:normal;font-weight:normal;font-stretch:normal;font-size:2.46944451px;font-family:FreeSans;-inkscape-font-specification:FreeSans;text-align:end;text-anchor:end;stroke-width:0.14496525px"
         id="path5217" />
      <path
         d="m 4.3426281,289.93253 q 0.079022,0.0346 0.1308806,0.0815 0.054328,0.0469 0.076553,0.10619 0.024694,0.0593 0.032103,0.11113 0.00741,0.0519 0.00741,0.12347 0,0.0222 -0.00247,0.0642 0,0.042 0,0.0617 0,0.10125 0.022225,0.17039 0.022225,0.0691 0.086431,0.1136 v 0.0568 H 4.4167115 q -0.049389,-0.11359 -0.049389,-0.29386 v -0.16051 q 0,-0.16546 -0.071614,-0.24201 -0.071614,-0.079 -0.2247195,-0.079 H 3.4783226 v 0.7754 H 3.2486642 v -1.80022 h 0.8297334 q 0.2642305,0 0.4049889,0.12594 0.1432278,0.12347 0.1432278,0.3556 0,0.15311 -0.066675,0.25435 -0.066675,0.10125 -0.2173111,0.17533 z m 0.04445,-0.39758 q 0,-0.1778 -0.093839,-0.24447 -0.093839,-0.0667 -0.2592916,-0.0667 h -0.555625 v 0.61983 h 0.555625 q 0.1827389,0 0.2667,-0.0741 0.086431,-0.0741 0.086431,-0.2346 z"
         style="font-style:normal;font-variant:normal;font-weight:normal;font-stretch:normal;font-size:2.46944451px;font-family:FreeSans;-inkscape-font-specification:FreeSans;text-align:end;text-anchor:end;stroke-width:0.14496525px"
         id="path5219" />
      <path
         d="m 4.8958607,289.94241 q 0,-0.12347 0.019756,-0.24447 0.022225,-0.12101 0.081492,-0.25189 0.059267,-0.13088 0.1456972,-0.22719 0.0889,-0.0988 0.2370667,-0.16298 0.1506361,-0.0642 0.3383139,-0.0642 0.5877278,0 0.6939139,0.58773 H 6.1775024 q -0.039511,-0.19261 -0.155575,-0.28892 -0.1160639,-0.0963 -0.3309055,-0.0963 -0.2617612,0 -0.4148667,0.20002 -0.1506361,0.20003 -0.1506361,0.54575 0,0.33832 0.1580444,0.53834 0.1580445,0.19756 0.4272139,0.19756 0.22225,0 0.3407834,-0.12348 0.1185333,-0.12594 0.1605139,-0.3877 h 0.2370666 q -0.081492,0.71367 -0.7408333,0.71367 -0.1852084,0 -0.333375,-0.0617 -0.1456973,-0.0642 -0.2345973,-0.16051 -0.08643,-0.0963 -0.1456972,-0.22472 -0.056797,-0.13088 -0.079022,-0.24941 -0.019756,-0.11854 -0.019756,-0.23954 z"
         style="font-style:normal;font-variant:normal;font-weight:normal;font-stretch:normal;font-size:2.46944451px;font-family:FreeSans;-inkscape-font-specification:FreeSans;text-align:end;text-anchor:end;stroke-width:0.14496525px"
         id="path5221" />
      <path
         d="m 7.3924307,290.67584 q 0.1382889,0 0.2345973,-0.0321 0.096308,-0.0321 0.1407583,-0.084 0.046919,-0.0519 0.064205,-0.10125 0.019756,-0.0519 0.019756,-0.10865 0,-0.20496 -0.3309056,-0.2914 l -0.4469694,-0.11853 q -0.3531306,-0.0914 -0.3531306,-0.4198 0,-0.24448 0.1703917,-0.38524 0.1728611,-0.14323 0.4691944,-0.14323 0.3111501,0 0.4840112,0.14817 0.1728611,0.1457 0.1753305,0.40993 H 7.8023585 q -0.00247,-0.17533 -0.1185333,-0.26917 -0.1160639,-0.0963 -0.3309056,-0.0963 -0.1827389,0 -0.2938639,0.084 -0.1086555,0.084 -0.1086555,0.21978 0,0.10372 0.066675,0.16299 0.066675,0.0593 0.2296583,0.10371 l 0.4519083,0.12101 q 0.1827389,0.0494 0.2815167,0.16792 0.1012472,0.11853 0.1012472,0.28398 0,0.0716 -0.019755,0.14323 -0.017286,0.0692 -0.066675,0.1457 -0.049389,0.0741 -0.1259417,0.13088 -0.076553,0.0568 -0.2049639,0.0938 -0.1259416,0.037 -0.2864555,0.037 -0.1012473,0 -0.1950862,-0.0173 -0.091369,-0.0148 -0.1876777,-0.0568 -0.096308,-0.0445 -0.1654528,-0.11113 -0.069145,-0.0691 -0.1160639,-0.18274 -0.04445,-0.11359 -0.04692,-0.26176 h 0.2173112 v 0.0123 q 0,0.0765 0.022225,0.14323 0.024694,0.0667 0.076553,0.13088 0.054328,0.0642 0.1580445,0.10371 0.1061861,0.0371 0.2518833,0.0371 z"
         style="font-style:normal;font-variant:normal;font-weight:normal;font-stretch:normal;font-size:2.46944451px;font-family:FreeSans;-inkscape-font-specification:FreeSans;text-align:end;text-anchor:end;stroke-width:0.14496525px"
         id="path5223" />
    </g>
    <g
       transform="matrix(0.74150267,0,0,0.74150267,-0.93093583,77.145193)"
       aria-label="A"
       style="font-style:normal;font-variant:normal;font-weight:normal;font-stretch:normal;font-size:7.38414288px;line-height:8.30716038px;font-family:Minitel;-inkscape-font-specification:Minitel;font-variant-ligatures:normal;font-variant-caps:normal;font-variant-numeric:normal;font-feature-settings:normal;text-align:center;letter-spacing:0px;word-spacing:0px;writing-mode:lr-tb;text-anchor:middle;fill:#000000;fill-opacity:1;stroke:none;stroke-width:0.37568828px;stroke-linecap:butt;stroke-linejoin:miter;stroke-opacity:1"
       id="text5024">
      <path
         inkscape:connector-curvature="0"
         d="m 2.8488065,289.5361 v 0.92302 h 2.7690536 v -0.92302 z m 2.7690536,0.92302 v 2.76905 H 2.8488065 v -2.76905 H 1.9257886 v 5.5381 h 0.9230179 v -1.84603 h 2.7690536 v 1.84603 h 0.9230178 v -5.5381 z"
         style="font-size:7.38414288px;line-height:8.30716038px;text-align:start;text-anchor:start;stroke-width:0.37568828px"
         id="path5693" />
    </g>
  </g>
</svg>
