<?xml version="1.0" encoding="UTF-8" standalone="no"?>
<!-- Created with Inkscape (http://www.inkscape.org/) -->

<svg
   xmlns:dc="http://purl.org/dc/elements/1.1/"
   xmlns:cc="http://creativecommons.org/ns#"
   xmlns:rdf="http://www.w3.org/1999/02/22-rdf-syntax-ns#"
   xmlns:svg="http://www.w3.org/2000/svg"
   xmlns="http://www.w3.org/2000/svg"
   xmlns:sodipodi="http://sodipodi.sourceforge.net/DTD/sodipodi-0.dtd"
   xmlns:inkscape="http://www.inkscape.org/namespaces/inkscape"
   width="32"
   height="32"
   viewBox="0 0 8.4666665 8.4666669"
   version="1.1"
   id="svg8"
   sodipodi:docname="edit-delete.svg"
   inkscape:version="0.92.1 r15371">
  <defs
     id="defs2" />
  <sodipodi:namedview
     id="base"
     pagecolor="#ffffff"
     bordercolor="#666666"
     borderopacity="1.0"
     inkscape:pageopacity="0.0"
     inkscape:pageshadow="2"
     inkscape:zoom="19.359356"
     inkscape:cx="23.346853"
     inkscape:cy="10.451861"
     inkscape:document-units="mm"
     inkscape:current-layer="layer1"
     showgrid="false"
     units="px"
     inkscape:window-width="1962"
     inkscape:window-height="1478"
     inkscape:window-x="963"
     inkscape:window-y="452"
     inkscape:window-maximized="0"
     inkscape:snap-global="false" />
  <metadata
     id="metadata5">
    <rdf:RDF>
      <cc:Work
         rdf:about="">
        <dc:format>image/svg+xml</dc:format>
        <dc:type
           rdf:resource="http://purl.org/dc/dcmitype/StillImage" />
        <dc:title></dc:title>
      </cc:Work>
    </rdf:RDF>
  </metadata>
  <g
     inkscape:label="Calque 1"
     inkscape:groupmode="layer"
     id="layer1"
     transform="translate(0,-288.53332)">
    <g
       id="g4891"
       transform="matrix(0.00482313,0,0,-0.00482313,0.83784981,295.85346)">
      <path
         id="path4889"
         d="M 512,800 V 224 q 0,-14 -9,-23 -9,-9 -23,-9 h -64 q -14,0 -23,9 -9,9 -9,23 v 576 q 0,14 9,23 9,9 23,9 h 64 q 14,0 23,-9 9,-9 9,-23 z m 256,0 V 224 q 0,-14 -9,-23 -9,-9 -23,-9 h -64 q -14,0 -23,9 -9,9 -9,23 v 576 q 0,14 9,23 9,9 23,9 h 64 q 14,0 23,-9 9,-9 9,-23 z m 256,0 V 224 q 0,-14 -9,-23 -9,-9 -23,-9 h -64 q -14,0 -23,9 -9,9 -9,23 v 576 q 0,14 9,23 9,9 23,9 h 64 q 14,0 23,-9 9,-9 9,-23 z M 1152,76 v 948 H 256 V 76 Q 256,54 263,35.5 270,17 277.5,8.5 285,0 288,0 h 832 q 3,0 10.5,8.5 7.5,8.5 14.5,27 7,18.5 7,40.5 z M 480,1152 h 448 l -48,117 q -7,9 -17,11 H 546 q -10,-2 -17,-11 z m 928,-32 v -64 q 0,-14 -9,-23 -9,-9 -23,-9 h -96 V 76 q 0,-83 -47,-143.5 -47,-60.5 -113,-60.5 H 288 q -66,0 -113,58.5 Q 128,-11 128,72 v 952 H 32 q -14,0 -23,9 -9,9 -9,23 v 64 q 0,14 9,23 9,9 23,9 h 309 l 70,167 q 15,37 54,63 39,26 79,26 h 320 q 40,0 79,-26 39,-26 54,-63 l 70,-167 h 309 q 14,0 23,-9 9,-9 9,-23 z"
         inkscape:connector-curvature="0"
         style="fill:currentColor" />
    </g>
  </g>
</svg>
