<?xml version="1.0" encoding="UTF-8" standalone="no"?>
<!-- Created with Inkscape (http://www.inkscape.org/) -->

<svg
   xmlns:dc="http://purl.org/dc/elements/1.1/"
   xmlns:cc="http://creativecommons.org/ns#"
   xmlns:rdf="http://www.w3.org/1999/02/22-rdf-syntax-ns#"
   xmlns:svg="http://www.w3.org/2000/svg"
   xmlns="http://www.w3.org/2000/svg"
   xmlns:sodipodi="http://sodipodi.sourceforge.net/DTD/sodipodi-0.dtd"
   xmlns:inkscape="http://www.inkscape.org/namespaces/inkscape"
   width="32"
   height="32"
   viewBox="0 0 8.4666665 8.4666669"
   version="1.1"
   id="svg8"
   sodipodi:docname="edit-rename.svg"
   inkscape:version="0.92.1 r15371">
  <defs
     id="defs2" />
  <sodipodi:namedview
     id="base"
     pagecolor="#ffffff"
     bordercolor="#666666"
     borderopacity="1.0"
     inkscape:pageopacity="0.0"
     inkscape:pageshadow="2"
     inkscape:zoom="4.839839"
     inkscape:cx="-21.120127"
     inkscape:cy="-48.776765"
     inkscape:document-units="mm"
     inkscape:current-layer="layer1"
     showgrid="false"
     units="px"
     inkscape:window-width="1962"
     inkscape:window-height="1478"
     inkscape:window-x="963"
     inkscape:window-y="452"
     inkscape:window-maximized="0"
     inkscape:snap-global="false" />
  <metadata
     id="metadata5">
    <rdf:RDF>
      <cc:Work
         rdf:about="">
        <dc:format>image/svg+xml</dc:format>
        <dc:type
           rdf:resource="http://purl.org/dc/dcmitype/StillImage" />
        <dc:title />
      </cc:Work>
    </rdf:RDF>
  </metadata>
  <g
     inkscape:label="Calque 1"
     inkscape:groupmode="layer"
     id="layer1"
     transform="translate(0,-288.53332)">
    <g
       id="g4486"
       transform="matrix(0.00444989,0,0,-0.00444989,0.26458769,295.89938)">
      <path
         id="path4484"
         d="M 888,352 1004,468 852,620 736,504 v -56 h 96 v -96 z m 440,720 c -9,9 -24,8 -33,-1 L 945,721 c -9,-9 -10,-24 -1,-33 9,-9 24,-8 33,1 l 350,350 c 9,9 10,24 1,33 z m 80,-594 V 288 C 1408,129 1279,0 1120,0 H 288 C 129,0 0,129 0,288 v 832 c 0,159 129,288 288,288 h 832 c 40,0 80,-8 117,-25 9,-4 16,-13 18,-23 2,-11 -1,-21 -9,-29 l -49,-49 c -9,-9 -21,-12 -32,-8 -15,4 -30,6 -45,6 H 288 c -88,0 -160,-72 -160,-160 V 288 c 0,-88 72,-160 160,-160 h 832 c 88,0 160,72 160,160 v 126 c 0,8 3,16 9,22 l 64,64 c 10,10 23,12 35,7 12,-5 20,-16 20,-29 z M 1312,1216 1600,928 928,256 H 640 v 288 z m 444,-132 -92,-92 -288,288 92,92 c 37,37 99,37 136,0 l 152,-152 c 37,-37 37,-99 0,-136 z"
         inkscape:connector-curvature="0"
         style="fill:currentColor" />
    </g>
  </g>
</svg>
