<?xml version="1.0" encoding="UTF-8" standalone="no"?>
<!-- Created with Inkscape (http://www.inkscape.org/) -->

<svg
   xmlns:dc="http://purl.org/dc/elements/1.1/"
   xmlns:cc="http://creativecommons.org/ns#"
   xmlns:rdf="http://www.w3.org/1999/02/22-rdf-syntax-ns#"
   xmlns:svg="http://www.w3.org/2000/svg"
   xmlns="http://www.w3.org/2000/svg"
   xmlns:sodipodi="http://sodipodi.sourceforge.net/DTD/sodipodi-0.dtd"
   xmlns:inkscape="http://www.inkscape.org/namespaces/inkscape"
   width="32"
   height="32"
   viewBox="0 0 8.4666665 8.4666669"
   version="1.1"
   id="svg8"
   sodipodi:docname="effect-separated-on.svg"
   inkscape:version="0.92.1 r15371">
  <defs
     id="defs2" />
  <sodipodi:namedview
     id="base"
     pagecolor="#ffffff"
     bordercolor="#666666"
     borderopacity="1.0"
     inkscape:pageopacity="0.0"
     inkscape:pageshadow="2"
     inkscape:zoom="22.627417"
     inkscape:cx="12.600151"
     inkscape:cy="7.8567523"
     inkscape:document-units="mm"
     inkscape:current-layer="layer1"
     showgrid="false"
     units="px"
     inkscape:window-width="1962"
     inkscape:window-height="1478"
     inkscape:window-x="1031"
     inkscape:window-y="462"
     inkscape:window-maximized="0"
     inkscape:snap-global="true" />
  <metadata
     id="metadata5">
    <rdf:RDF>
      <cc:Work
         rdf:about="">
        <dc:format>image/svg+xml</dc:format>
        <dc:type
           rdf:resource="http://purl.org/dc/dcmitype/StillImage" />
        <dc:title />
      </cc:Work>
    </rdf:RDF>
  </metadata>
  <g
     inkscape:label="Calque 1"
     inkscape:groupmode="layer"
     id="layer1"
     transform="translate(0,-288.53332)">
    <g
       id="g4604"
       transform="translate(0.92604171,-1.5874999)">
      <path
         id="rect4532"
         transform="matrix(0.26458333,0,0,0.26458333,0,288.53332)"
         d="m 1,12 v 2 h 3 v -2 z m 4,0 v 2 h 3 v -2 z m -4,3 v 3 h 3 v -3 z m 4,0 v 3 h 3 v -3 z m -4,4 v 2 h 3 v -2 z m 4,0 v 2 h 3 v -2 z"
         style="color:#000000;display:inline;overflow:visible;visibility:visible;opacity:1;vector-effect:none;fill:#000000;fill-opacity:1;fill-rule:nonzero;stroke:none;stroke-width:2.46399999;stroke-linecap:butt;stroke-linejoin:round;stroke-miterlimit:4;stroke-dasharray:none;stroke-dashoffset:0;stroke-opacity:1;marker:none;enable-background:accumulate"
         inkscape:connector-curvature="0" />
      <path
         id="rect4534"
         transform="matrix(0.26458333,0,0,0.26458333,0,288.53332)"
         d="m 9,12 v 2 h 3 v -2 z m 4,0 v 2 h 3 v -2 z m -4,3 v 3 h 3 v -3 z m 4,0 v 3 h 3 v -3 z m -4,4 v 2 h 3 v -2 z m 4,0 v 2 h 3 v -2 z"
         style="color:#000000;display:inline;overflow:visible;visibility:visible;opacity:1;vector-effect:none;fill:#0000ff;fill-opacity:1;fill-rule:nonzero;stroke:none;stroke-width:2.46399999;stroke-linecap:butt;stroke-linejoin:round;stroke-miterlimit:4;stroke-dasharray:none;stroke-dashoffset:0;stroke-opacity:1;marker:none;enable-background:accumulate"
         inkscape:connector-curvature="0" />
      <path
         id="rect4536"
         transform="matrix(0.26458333,0,0,0.26458333,0,288.53332)"
         d="m 17,12 v 2 h 3 v -2 z m 4,0 v 2 h 3 v -2 z m -4,3 v 3 h 3 v -3 z m 4,0 v 3 h 3 v -3 z m -4,4 v 2 h 3 v -2 z m 4,0 v 2 h 3 v -2 z"
         style="color:#000000;display:inline;overflow:visible;visibility:visible;opacity:1;vector-effect:none;fill:#ff0000;fill-opacity:1;fill-rule:nonzero;stroke:none;stroke-width:2.46399999;stroke-linecap:butt;stroke-linejoin:round;stroke-miterlimit:4;stroke-dasharray:none;stroke-dashoffset:0;stroke-opacity:1;marker:none;enable-background:accumulate"
         inkscape:connector-curvature="0" />
      <path
         id="rect4538"
         transform="matrix(0.26458333,0,0,0.26458333,0,288.53332)"
         d="m 1,22 v 2 h 3 v -2 z m 4,0 v 2 h 3 v -2 z m -4,3 v 3 h 3 v -3 z m 4,0 v 3 h 3 v -3 z m -4,4 v 2 h 3 v -2 z m 4,0 v 2 h 3 v -2 z"
         style="color:#000000;display:inline;overflow:visible;visibility:visible;opacity:1;vector-effect:none;fill:#00f700;fill-opacity:1;fill-rule:nonzero;stroke:none;stroke-width:2.46399999;stroke-linecap:butt;stroke-linejoin:round;stroke-miterlimit:4;stroke-dasharray:none;stroke-dashoffset:0;stroke-opacity:1;marker:none;enable-background:accumulate"
         inkscape:connector-curvature="0" />
      <path
         id="rect4540"
         transform="matrix(0.26458333,0,0,0.26458333,0,288.53332)"
         d="m 9,22 v 2 h 3 v -2 z m 4,0 v 2 h 3 v -2 z m -4,3 v 3 h 3 v -3 z m 4,0 v 3 h 3 v -3 z m -4,4 v 2 h 3 v -2 z m 4,0 v 2 h 3 v -2 z"
         style="color:#000000;display:inline;overflow:visible;visibility:visible;opacity:1;vector-effect:none;fill:#ffff0e;fill-opacity:1;fill-rule:nonzero;stroke:none;stroke-width:2.46399999;stroke-linecap:butt;stroke-linejoin:round;stroke-miterlimit:4;stroke-dasharray:none;stroke-dashoffset:0;stroke-opacity:1;marker:none;enable-background:accumulate"
         inkscape:connector-curvature="0" />
      <path
         id="rect4542"
         transform="matrix(0.26458333,0,0,0.26458333,0,288.53332)"
         d="m 17,22 v 2 h 3 v -2 z m 4,0 v 2 h 3 v -2 z m -4,3 v 3 h 3 v -3 z m 4,0 v 3 h 3 v -3 z m -4,4 v 2 h 3 v -2 z m 4,0 v 2 h 3 v -2 z"
         style="color:#000000;display:inline;overflow:visible;visibility:visible;opacity:1;vector-effect:none;fill:#00ffff;fill-opacity:1;fill-rule:nonzero;stroke:none;stroke-width:2.46399999;stroke-linecap:butt;stroke-linejoin:round;stroke-miterlimit:4;stroke-dasharray:none;stroke-dashoffset:0;stroke-opacity:1;marker:none;enable-background:accumulate"
         inkscape:connector-curvature="0" />
    </g>
  </g>
</svg>
