<?xml version="1.0" encoding="UTF-8" standalone="no"?>
<!-- Created with Inkscape (http://www.inkscape.org/) -->

<svg
   xmlns:dc="http://purl.org/dc/elements/1.1/"
   xmlns:cc="http://creativecommons.org/ns#"
   xmlns:rdf="http://www.w3.org/1999/02/22-rdf-syntax-ns#"
   xmlns:svg="http://www.w3.org/2000/svg"
   xmlns="http://www.w3.org/2000/svg"
   xmlns:sodipodi="http://sodipodi.sourceforge.net/DTD/sodipodi-0.dtd"
   xmlns:inkscape="http://www.inkscape.org/namespaces/inkscape"
   width="32"
   height="32"
   viewBox="0 0 8.4666665 8.4666669"
   version="1.1"
   id="svg8"
   sodipodi:docname="exit.svg"
   inkscape:version="0.92.1 r15371">
  <defs
     id="defs2" />
  <sodipodi:namedview
     id="base"
     pagecolor="#ffffff"
     bordercolor="#666666"
     borderopacity="1.0"
     inkscape:pageopacity="0.0"
     inkscape:pageshadow="2"
     inkscape:zoom="4"
     inkscape:cx="-45.577815"
     inkscape:cy="-18.040625"
     inkscape:document-units="mm"
     inkscape:current-layer="layer1"
     showgrid="false"
     units="px"
     inkscape:window-width="1962"
     inkscape:window-height="1478"
     inkscape:window-x="1031"
     inkscape:window-y="462"
     inkscape:window-maximized="0"
     inkscape:snap-global="true" />
  <metadata
     id="metadata5">
    <rdf:RDF>
      <cc:Work
         rdf:about="">
        <dc:format>image/svg+xml</dc:format>
        <dc:type
           rdf:resource="http://purl.org/dc/dcmitype/StillImage" />
        <dc:title />
      </cc:Work>
    </rdf:RDF>
  </metadata>
  <g
     inkscape:label="Calque 1"
     inkscape:groupmode="layer"
     id="layer1"
     transform="translate(0,-288.53332)">
    <g
       id="g4486"
       transform="matrix(0.00506218,0,0,-0.00506218,0.26458421,296.00645)">
      <path
         id="path4484"
         d="M 640,96 C 640,68 653,0 608,0 H 288 C 129,0 0,129 0,288 v 704 c 0,159 129,288 288,288 h 320 c 17,0 32,-15 32,-32 0,-28 13,-96 -32,-96 H 288 c -88,0 -160,-72 -160,-160 V 288 c 0,-88 72,-160 160,-160 h 288 c 25,0 64,5 64,-32 z m 928,544 c 0,-17 -7,-33 -19,-45 L 1005,51 C 993,39 977,32 960,32 925,32 896,61 896,96 V 384 H 448 c -35,0 -64,29 -64,64 v 384 c 0,35 29,64 64,64 h 448 v 288 c 0,35 29,64 64,64 17,0 33,-7 45,-19 l 544,-544 c 12,-12 19,-28 19,-45 z"
         inkscape:connector-curvature="0"
         style="fill:currentColor" />
    </g>
  </g>
</svg>
