<?xml version="1.0" encoding="UTF-8" standalone="no"?>
<!-- Created with Inkscape (http://www.inkscape.org/) -->

<svg
   xmlns:dc="http://purl.org/dc/elements/1.1/"
   xmlns:cc="http://creativecommons.org/ns#"
   xmlns:rdf="http://www.w3.org/1999/02/22-rdf-syntax-ns#"
   xmlns:svg="http://www.w3.org/2000/svg"
   xmlns="http://www.w3.org/2000/svg"
   xmlns:sodipodi="http://sodipodi.sourceforge.net/DTD/sodipodi-0.dtd"
   xmlns:inkscape="http://www.inkscape.org/namespaces/inkscape"
   width="32"
   height="32"
   viewBox="0 0 8.4666665 8.4666669"
   version="1.1"
   id="svg8"
   inkscape:version="0.92.1 r15371"
   sodipodi:docname="file-export.svg">
  <defs
     id="defs2" />
  <sodipodi:namedview
     id="base"
     pagecolor="#ffffff"
     bordercolor="#666666"
     borderopacity="1.0"
     inkscape:pageopacity="0.0"
     inkscape:pageshadow="2"
     inkscape:zoom="32"
     inkscape:cx="9.8919706"
     inkscape:cy="3.6354419"
     inkscape:document-units="px"
     inkscape:current-layer="layer1"
     showgrid="false"
     units="px"
     inkscape:window-width="3840"
     inkscape:window-height="2064"
     inkscape:window-x="0"
     inkscape:window-y="27"
     inkscape:window-maximized="1" />
  <metadata
     id="metadata5">
    <rdf:RDF>
      <cc:Work
         rdf:about="">
        <dc:format>image/svg+xml</dc:format>
        <dc:type
           rdf:resource="http://purl.org/dc/dcmitype/StillImage" />
        <dc:title></dc:title>
      </cc:Work>
    </rdf:RDF>
  </metadata>
  <g
     inkscape:label="Calque 1"
     inkscape:groupmode="layer"
     id="layer1"
     transform="translate(0,-288.53331)">
    <g
       id="g4541"
       transform="matrix(0.05841407,0,0,0.05841407,-2.1677764,287.83607)">
      <path
         inkscape:connector-curvature="0"
         id="path4496"
         d="m 66.618302,77.395831 c 24.820436,0.976439 49.640868,1.952877 74.461308,2.929316 2.23636,3.086805 4.47272,6.173611 6.70908,9.260416 -0.40947,11.622767 -0.81895,23.245537 -1.22842,34.868307 -2.61434,4.22073 -5.22867,8.44147 -7.84301,12.6622 -8.47297,2.74033 -16.94593,5.48065 -25.4189,8.22098 -3.28675,-0.30172 -6.61974,-0.94769 -9.87796,-1.03708 -2.88096,1.16464 -5.761914,2.32929 -8.64287,3.49393 0.930219,1.20298 0.729993,3.53676 -1.169836,3.38447 -2.631315,1.03599 -5.255242,-0.32827 -7.882176,-0.7156 -14.117584,-3.06299 -28.235167,-6.12597 -42.352751,-9.18896 0.249569,-1.34851 -1.184018,-3.80596 0.359608,-4.30188 7.250667,-2.3458 14.501333,-4.69161 21.751999,-7.03741 -0.06222,-1.59222 4.062737,-2.31626 1.276084,-2.47546 -1.783679,-0.11502 -3.459206,-0.32129 -2.77184,-2.52106 0.12061,-15.43791 0.241219,-30.875829 0.361829,-46.313746 0.620683,-0.880068 1.163792,-1.237286 2.267855,-1.228423 z"
         style="color:#000000;display:inline;overflow:visible;visibility:visible;opacity:1;vector-effect:none;fill:#1d1d1d;fill-opacity:1;fill-rule:nonzero;stroke:#131313;stroke-width:0.52916664;stroke-linecap:butt;stroke-linejoin:miter;stroke-miterlimit:4;stroke-dasharray:none;stroke-dashoffset:0;stroke-opacity:1;marker:none;enable-background:accumulate" />
      <path
         inkscape:connector-curvature="0"
         id="path4498"
         d="m 72.854909,85.049851 c 8.16749,0.04005 16.330202,0.322236 24.483487,0.793909 3.556104,0.176336 7.112204,0.352672 10.668304,0.529008 1.29964,1.840028 0.0903,4.119466 0.11292,6.150662 -0.69873,5.909157 -0.73486,11.87428 -0.80401,17.8149 0.15957,4.11877 0.57603,8.25091 0.76206,12.3503 -1.65311,1.17416 -4.08233,0.0638 -6.04697,0.32111 -6.386366,-0.25684 -12.691835,-1.379 -19.030186,-2.12778 -3.384477,-0.45582 -6.764902,-0.94413 -10.134079,-1.50266 -1.628637,-0.97331 -0.610202,-3.13533 -0.989853,-4.65639 -0.222522,-6.67561 -0.12305,-13.3612 0.10478,-20.035033 0.171363,-3.222172 0.490037,-6.434769 0.873547,-9.638026 z"
         style="color:#000000;display:inline;overflow:visible;visibility:visible;opacity:1;vector-effect:none;fill:#ffffff;fill-opacity:1;fill-rule:nonzero;stroke:none;stroke-width:0.52916664;stroke-linecap:butt;stroke-linejoin:miter;stroke-miterlimit:4;stroke-dasharray:none;stroke-dashoffset:0;stroke-opacity:1;marker:none;enable-background:accumulate" />
      <path
         inkscape:connector-curvature="0"
         id="path4520"
         d="m 62.744048,132.01339 c 7.654018,1.40166 15.308034,2.80333 22.962052,4.20499 -1.183805,2.24406 4.186736,1.03137 1.884324,3.07212 -1.615094,0.52702 -3.176743,1.71202 -4.930852,1.1718 -1.047611,-0.13897 -2.095222,-0.27794 -3.142833,-0.41691 -1.261144,0.64446 -2.531766,1.6305 -3.967455,0.94434 -0.81638,-0.42268 -1.470271,-0.0562 -2.080812,0.52079 -0.626718,0.62417 -1.328739,0.90147 -2.172881,0.52412 -8.268173,-1.68677 -16.536346,-3.37354 -24.804519,-5.06031 4.047495,-1.40166 8.094988,-2.80333 12.142483,-4.20499 1.629684,0.72181 2.699929,-0.004 4.110493,-0.75595 z"
         style="color:#000000;display:inline;overflow:visible;visibility:visible;opacity:1;vector-effect:none;fill:#ffffff;fill-opacity:1;fill-rule:nonzero;stroke:none;stroke-width:1.72899997;stroke-linecap:butt;stroke-linejoin:miter;stroke-miterlimit:4;stroke-dasharray:none;stroke-dashoffset:0;stroke-opacity:1;marker:none;enable-background:accumulate" />
      <path
         inkscape:connector-curvature="0"
         id="path4522"
         d="m 92.982141,137.30506 c 3.086807,0.58271 6.173612,1.16543 9.260419,1.74814 -3.354539,1.43316 -6.709078,2.86632 -10.063617,4.29948 -3.023811,-0.59846 -6.047619,-1.19693 -9.07143,-1.79539 3.291543,-1.41741 6.583085,-2.83482 9.874628,-4.25223 z"
         style="color:#000000;display:inline;overflow:visible;visibility:visible;opacity:1;vector-effect:none;fill:#ffffff;fill-opacity:1;fill-rule:nonzero;stroke:none;stroke-width:1.72899997;stroke-linecap:butt;stroke-linejoin:miter;stroke-miterlimit:4;stroke-dasharray:none;stroke-dashoffset:0;stroke-opacity:1;marker:none;enable-background:accumulate" />
      <path
         inkscape:connector-curvature="0"
         id="path4524"
         d="m 66.486635,130.06815 c 13.588036,2.22331 27.176069,4.44663 40.764105,6.66994 -1.24539,2.1944 -3.96582,0.0866 -5.92819,0.12834 -2.065346,-0.12937 -4.323289,-1.48789 -6.249728,-0.73073 -1.155583,0.81803 -2.345079,1.42758 -3.726196,0.85911 -6.179654,-1.17225 -12.359309,-2.34451 -18.538964,-3.51676 2.872774,-1.51457 -1.569243,-1.32772 -2.848497,-1.87653 -1.273472,-0.4072 -4.131523,-0.59513 -4.383149,-1.14372 0.29461,-0.14938 0.597195,-0.28444 0.910619,-0.38965 z"
         style="color:#000000;display:inline;overflow:visible;visibility:visible;opacity:1;vector-effect:none;fill:#ffffff;fill-opacity:1;fill-rule:nonzero;stroke:none;stroke-width:1.72899997;stroke-linecap:butt;stroke-linejoin:miter;stroke-miterlimit:4;stroke-dasharray:none;stroke-dashoffset:0;stroke-opacity:1;marker:none;enable-background:accumulate" />
    </g>
    <g
       id="g4545"
       transform="matrix(0.00158909,0.00158909,-0.00158909,0.00158909,6.4119752,287.94376)">
      <path
         id="path4543"
         d="m 1611,704 q 0,-53 -37,-90 L 923,-38 q -39,-37 -91,-37 -53,0 -90,37 L 91,614 q -38,36 -38,90 0,53 38,91 l 74,75 q 39,37 91,37 53,0 90,-37 L 640,576 v 704 q 0,52 38,90 38,38 90,38 h 128 q 52,0 90,-38 38,-38 38,-90 V 576 l 294,294 q 37,37 90,37 52,0 91,-37 l 75,-75 q 37,-39 37,-91 z"
         inkscape:connector-curvature="0"
         style="fill:currentColor" />
    </g>
  </g>
</svg>
