<?xml version="1.0" encoding="UTF-8" standalone="no"?>
<!-- Created with Inkscape (http://www.inkscape.org/) -->

<svg
   xmlns:dc="http://purl.org/dc/elements/1.1/"
   xmlns:cc="http://creativecommons.org/ns#"
   xmlns:rdf="http://www.w3.org/1999/02/22-rdf-syntax-ns#"
   xmlns:svg="http://www.w3.org/2000/svg"
   xmlns="http://www.w3.org/2000/svg"
   xmlns:sodipodi="http://sodipodi.sourceforge.net/DTD/sodipodi-0.dtd"
   xmlns:inkscape="http://www.inkscape.org/namespaces/inkscape"
   width="32"
   height="32"
   viewBox="0 0 8.4666665 8.4666669"
   version="1.1"
   id="svg8"
   inkscape:version="0.92.1 r15371"
   sodipodi:docname="file-save.svg">
  <defs
     id="defs2" />
  <sodipodi:namedview
     id="base"
     pagecolor="#ffffff"
     bordercolor="#666666"
     borderopacity="1.0"
     inkscape:pageopacity="0.0"
     inkscape:pageshadow="2"
     inkscape:zoom="5.6"
     inkscape:cx="21.852092"
     inkscape:cy="12.835369"
     inkscape:document-units="px"
     inkscape:current-layer="layer1"
     showgrid="false"
     units="px"
     inkscape:window-width="3840"
     inkscape:window-height="2064"
     inkscape:window-x="0"
     inkscape:window-y="27"
     inkscape:window-maximized="1" />
  <metadata
     id="metadata5">
    <rdf:RDF>
      <cc:Work
         rdf:about="">
        <dc:format>image/svg+xml</dc:format>
        <dc:type
           rdf:resource="http://purl.org/dc/dcmitype/StillImage" />
        <dc:title></dc:title>
      </cc:Work>
    </rdf:RDF>
  </metadata>
  <g
     inkscape:label="Calque 1"
     inkscape:groupmode="layer"
     id="layer1"
     transform="translate(0,-288.53332)">
    <g
       id="g4487"
       transform="matrix(0.00516764,0,0,-0.00516764,0.26458583,296.07394)">
      <path
         id="path4485"
         d="m 384,0 h 768 V 384 H 384 Z m 896,0 h 128 v 896 q 0,14 -10,38.5 -10,24.5 -20,34.5 l -281,281 q -10,10 -34,20 -24,10 -39,10 V 864 q 0,-40 -28,-68 -28,-28 -68,-28 H 352 q -40,0 -68,28 -28,28 -28,68 v 416 H 128 V 0 h 128 v 416 q 0,40 28,68 28,28 68,28 h 832 q 40,0 68,-28 28,-28 28,-68 z M 896,928 v 320 q 0,13 -9.5,22.5 -9.5,9.5 -22.5,9.5 H 672 q -13,0 -22.5,-9.5 Q 640,1261 640,1248 V 928 q 0,-13 9.5,-22.5 Q 659,896 672,896 h 192 q 13,0 22.5,9.5 9.5,9.5 9.5,22.5 z m 640,-32 V -32 q 0,-40 -28,-68 -28,-28 -68,-28 H 96 q -40,0 -68,28 -28,28 -28,68 v 1344 q 0,40 28,68 28,28 68,28 h 928 q 40,0 88,-20 48,-20 76,-48 l 280,-280 q 28,-28 48,-76 20,-48 20,-88 z"
         inkscape:connector-curvature="0"
         style="fill:currentColor" />
    </g>
  </g>
</svg>
