<?xml version="1.0" encoding="UTF-8" standalone="no"?>
<svg
   xmlns:dc="http://purl.org/dc/elements/1.1/"
   xmlns:cc="http://creativecommons.org/ns#"
   xmlns:rdf="http://www.w3.org/1999/02/22-rdf-syntax-ns#"
   xmlns:svg="http://www.w3.org/2000/svg"
   xmlns="http://www.w3.org/2000/svg"
   xmlns:sodipodi="http://sodipodi.sourceforge.net/DTD/sodipodi-0.dtd"
   xmlns:inkscape="http://www.inkscape.org/namespaces/inkscape"
   width="32"
   height="32"
   viewBox="0 0 32 32"
   version="1.1"
   id="svg4"
   sodipodi:docname="graphics-fill.svg"
   inkscape:version="0.92.1 r15371">
  <metadata
     id="metadata10">
    <rdf:RDF>
      <cc:Work
         rdf:about="">
        <dc:format>image/svg+xml</dc:format>
        <dc:type
           rdf:resource="http://purl.org/dc/dcmitype/StillImage" />
        <dc:title />
      </cc:Work>
    </rdf:RDF>
  </metadata>
  <defs
     id="defs8" />
  <sodipodi:namedview
     pagecolor="#ffffff"
     bordercolor="#666666"
     borderopacity="1"
     objecttolerance="10"
     gridtolerance="10"
     guidetolerance="10"
     inkscape:pageopacity="0"
     inkscape:pageshadow="2"
     inkscape:window-width="1520"
     inkscape:window-height="1187"
     id="namedview6"
     showgrid="false"
     inkscape:zoom="11.313708"
     inkscape:cx="10.550466"
     inkscape:cy="12.405069"
     inkscape:window-x="1180"
     inkscape:window-y="457"
     inkscape:window-maximized="0"
     inkscape:current-layer="svg4"
     showguides="true"
     inkscape:guide-bbox="true" />
  <path
     style="color:#000000;display:inline;overflow:visible;visibility:visible;opacity:1;vector-effect:none;fill:#ffa88d;fill-opacity:1;fill-rule:nonzero;stroke:none;stroke-width:2.46399999;stroke-linecap:butt;stroke-linejoin:round;stroke-miterlimit:4;stroke-dasharray:none;stroke-dashoffset:0;stroke-opacity:1;marker:none;enable-background:accumulate"
     d="m 6.7175147,17.50431 4.2426413,-2.12132 5.126524,-4.596194 2.032932,-3.9774762 0.707107,-2.4748738 10.783379,10.871767 -0.618719,3.447146 -3.005204,4.596194 -4.772971,3.447146 -3.447145,1.856155 -2.121321,-0.441941 -9.7227184,-10.164661 z"
     id="path4482"
     inkscape:connector-curvature="0" />
  <path
     d="m 4.57125,13.083775 c 0.91625,-1.74 2.3925,-3.8125001 4.52125,-5.9412501 3.72125,-3.7225 6.8475,-4.8925 8.48125,-4.8925 0.5175,0 0.885,0.1175 1.075,0.3075 l 1.70125,1.7 c 2.37375,-0.295 4.275,0.1325 5.3675,1.22875 1.095,1.09375 1.455,2.69875 0.99,4.40375 -0.615,2.2575001 -2.88125,5.0612501 -7.38125,6.7187501 -0.0475,0.40375 -0.19625,0.7975 -0.50625,1.10625 -0.735,0.735 -1.91875,0.7325 -2.65125,0 -0.7325,-0.7325 -0.735,-1.91625 -0.0025,-2.64875 0.735,-0.73375 1.92125,-0.735 2.65375,-0.0013 l 0.2125,0.32 c 2.53875,-0.95625 4.24375,-2.285 5.29,-3.625 L 19.47375,6.9162249 c -0.62,3.4125001 -8.04,10.8450001 -11.4725,11.4725001 l 8.89375,8.88375 c 0.2925,0.19125 3.4975,-0.395 7.695,-4.59375 4.24125,-4.24125 3.96875,-6.58875 3.78375,-6.8725 l -2.32375,-2.32 c 0.54875,-0.44875 1.15625,-1.37875 1.42625,-2.11125 l 2.6675,2.66375 c 0.55625,0.5575 0.85625,1.33 0.85625,2.275 0,2.0425 -1.40125,4.89375 -4.64125,8.1325 -3.455,3.455 -6.975,5.30375 -9.29,5.30375 -0.81,0 -1.475,-0.24375 -1.93375,-0.7025 L 5.0275,18.949975 c -1.1375,1.0925 0.9725,4.4225 0.9725,5.81 0,1.38 -1.12,2.49875 -2.5,2.49875 -1.38125,0 -2.5,-1.12 -2.5,-2.5 0,-3.98 1.78125,-8.5125 3.57125,-11.675 z M 24.8325,6.3700249 c -0.65875,-0.6625 -1.83875,-0.98875 -3.32,-0.95125 l 4.01125,4.0075 c 0.295,-1.2225 0.06125,-2.30625 -0.69125,-3.05625 z m -11.615,5.0987501 0.0375,-0.03625 c 1.615,-1.6150001 4.75375,-5.4450001 3.87,-6.3287501 -0.89375,-0.89375 -4.36,1.90125 -6.3275,3.87 -1.0775,1.0775001 -2.61,2.8087501 -3.67125,4.3225001 2.14625,-1.3425 4.36375,-1.83625 6.09125,-1.8275 z"
     id="path2"
     inkscape:connector-curvature="0"
     style="stroke-width:0.75;stroke:#ffffff;stroke-opacity:1;stroke-miterlimit:4;stroke-dasharray:none" />
</svg>
