<?xml version="1.0" encoding="UTF-8" standalone="no"?>
<!-- Created with Inkscape (http://www.inkscape.org/) -->

<svg
   xmlns:dc="http://purl.org/dc/elements/1.1/"
   xmlns:cc="http://creativecommons.org/ns#"
   xmlns:rdf="http://www.w3.org/1999/02/22-rdf-syntax-ns#"
   xmlns:svg="http://www.w3.org/2000/svg"
   xmlns="http://www.w3.org/2000/svg"
   xmlns:sodipodi="http://sodipodi.sourceforge.net/DTD/sodipodi-0.dtd"
   xmlns:inkscape="http://www.inkscape.org/namespaces/inkscape"
   width="32"
   height="32"
   viewBox="0 0 8.4666665 8.4666669"
   version="1.1"
   id="svg8"
   sodipodi:docname="graphics-move-center.svg"
   inkscape:version="0.92.1 r15371">
  <defs
     id="defs2" />
  <sodipodi:namedview
     id="base"
     pagecolor="#ffffff"
     bordercolor="#666666"
     borderopacity="1.0"
     inkscape:pageopacity="0.0"
     inkscape:pageshadow="2"
     inkscape:zoom="2.0000001"
     inkscape:cx="-106.83712"
     inkscape:cy="-137.35259"
     inkscape:document-units="mm"
     inkscape:current-layer="layer1"
     showgrid="false"
     units="px"
     inkscape:window-width="1962"
     inkscape:window-height="1478"
     inkscape:window-x="1031"
     inkscape:window-y="462"
     inkscape:window-maximized="0"
     inkscape:snap-global="true" />
  <metadata
     id="metadata5">
    <rdf:RDF>
      <cc:Work
         rdf:about="">
        <dc:format>image/svg+xml</dc:format>
        <dc:type
           rdf:resource="http://purl.org/dc/dcmitype/StillImage" />
        <dc:title />
      </cc:Work>
    </rdf:RDF>
  </metadata>
  <g
     inkscape:label="Calque 1"
     inkscape:groupmode="layer"
     id="layer1"
     transform="translate(0,-288.53332)">
    <g
       id="g4486"
       transform="matrix(0.00442941,0,0,-0.00442941,0.26458197,295.60148)">
      <path
         id="path4484"
         d="m 1792,640 c 0,-17 -7,-33 -19,-45 L 1517,339 c -12,-12 -28,-19 -45,-19 -35,0 -64,29 -64,64 V 512 H 1024 V 128 h 128 c 35,0 64,-29 64,-64 0,-17 -7,-33 -19,-45 L 941,-237 c -12,-12 -28,-19 -45,-19 -17,0 -33,7 -45,19 L 595,19 c -12,12 -19,28 -19,45 0,35 29,64 64,64 H 768 V 512 H 384 V 384 c 0,-35 -29,-64 -64,-64 -17,0 -33,7 -45,19 L 19,595 C 7,607 0,623 0,640 c 0,17 7,33 19,45 l 256,256 c 12,12 28,19 45,19 35,0 64,-29 64,-64 V 768 h 384 v 384 H 640 c -35,0 -64,29 -64,64 0,17 7,33 19,45 l 256,256 c 12,12 28,19 45,19 17,0 33,-7 45,-19 l 256,-256 c 12,-12 19,-28 19,-45 0,-35 -29,-64 -64,-64 H 1024 V 768 h 384 v 128 c 0,35 29,64 64,64 17,0 33,-7 45,-19 l 256,-256 c 12,-12 19,-28 19,-45 z"
         inkscape:connector-curvature="0"
         style="fill:currentColor" />
    </g>
  </g>
</svg>
