<?xml version="1.0" encoding="UTF-8" standalone="no"?>
<!-- Created with Inkscape (http://www.inkscape.org/) -->

<svg
   xmlns:dc="http://purl.org/dc/elements/1.1/"
   xmlns:cc="http://creativecommons.org/ns#"
   xmlns:rdf="http://www.w3.org/1999/02/22-rdf-syntax-ns#"
   xmlns:svg="http://www.w3.org/2000/svg"
   xmlns="http://www.w3.org/2000/svg"
   xmlns:sodipodi="http://sodipodi.sourceforge.net/DTD/sodipodi-0.dtd"
   xmlns:inkscape="http://www.inkscape.org/namespaces/inkscape"
   width="32"
   height="32"
   viewBox="0 0 8.4666665 8.4666669"
   version="1.1"
   id="svg8"
   inkscape:version="0.92.1 r15371"
   sodipodi:docname="graphics-redo.svg">
  <defs
     id="defs2" />
  <sodipodi:namedview
     id="base"
     pagecolor="#ffffff"
     bordercolor="#666666"
     borderopacity="1.0"
     inkscape:pageopacity="0.0"
     inkscape:pageshadow="2"
     inkscape:zoom="5.6"
     inkscape:cx="43.672271"
     inkscape:cy="1.6663963"
     inkscape:document-units="px"
     inkscape:current-layer="layer1"
     showgrid="false"
     units="px"
     inkscape:window-width="3840"
     inkscape:window-height="2064"
     inkscape:window-x="0"
     inkscape:window-y="27"
     inkscape:window-maximized="1" />
  <metadata
     id="metadata5">
    <rdf:RDF>
      <cc:Work
         rdf:about="">
        <dc:format>image/svg+xml</dc:format>
        <dc:type
           rdf:resource="http://purl.org/dc/dcmitype/StillImage" />
        <dc:title></dc:title>
      </cc:Work>
    </rdf:RDF>
  </metadata>
  <g
     inkscape:label="Calque 1"
     inkscape:groupmode="layer"
     id="layer1"
     transform="translate(0,-288.53332)">
    <g
       id="g4487"
       transform="matrix(-0.00516764,0,0,-0.00516764,8.2020809,296.07394)">
      <path
         id="path4485"
         d="M 1536,640 Q 1536,484 1475,342 1414,200 1311,97 1208,-6 1066,-67 924,-128 768,-128 596,-128 441,-55.5 286,17 177,149 q -7,10 -6.5,22.5 0.5,12.5 8.5,20.5 l 137,138 q 10,9 25,9 16,-2 23,-12 73,-95 179,-147 106,-52 225,-52 104,0 198.5,40.5 94.5,40.5 163.5,109.5 69,69 109.5,163.5 40.5,94.5 40.5,198.5 0,104 -40.5,198.5 Q 1199,933 1130,1002 1061,1071 966.5,1111.5 872,1152 768,1152 670,1152 580,1116.5 490,1081 420,1015 L 557,877 q 31,-30 14,-69 -17,-40 -59,-40 H 64 Q 38,768 19,787 0,806 0,832 v 448 q 0,42 40,59 39,17 69,-14 l 130,-129 q 107,101 244.5,156.5 137.5,55.5 284.5,55.5 156,0 298,-61 142,-61 245,-164 103,-103 164,-245 61,-142 61,-298 z"
         inkscape:connector-curvature="0"
         style="fill:currentColor" />
    </g>
  </g>
</svg>
