<?xml version="1.0" encoding="UTF-8" standalone="no"?>
<!-- Svg Vector Icons : http://www.onlinewebfonts.com/icon -->

<svg
   xmlns:dc="http://purl.org/dc/elements/1.1/"
   xmlns:cc="http://creativecommons.org/ns#"
   xmlns:rdf="http://www.w3.org/1999/02/22-rdf-syntax-ns#"
   xmlns:svg="http://www.w3.org/2000/svg"
   xmlns="http://www.w3.org/2000/svg"
   xmlns:sodipodi="http://sodipodi.sourceforge.net/DTD/sodipodi-0.dtd"
   xmlns:inkscape="http://www.inkscape.org/namespaces/inkscape"
   version="1.1"
   x="0px"
   y="0px"
   viewBox="0 0 32 32"
   enable-background="new 0 0 1000 1000"
   xml:space="preserve"
   id="svg14"
   sodipodi:docname="graphics-paste.svg"
   width="32"
   height="32"
   inkscape:version="0.92.1 r15371"><defs
     id="defs18" /><sodipodi:namedview
     pagecolor="#ffffff"
     bordercolor="#666666"
     borderopacity="1"
     objecttolerance="10"
     gridtolerance="10"
     guidetolerance="10"
     inkscape:pageopacity="0"
     inkscape:pageshadow="2"
     inkscape:window-width="3840"
     inkscape:window-height="2064"
     id="namedview16"
     showgrid="false"
     inkscape:zoom="29.79619"
     inkscape:cx="36.041025"
     inkscape:cy="12.855184"
     inkscape:window-x="0"
     inkscape:window-y="27"
     inkscape:window-maximized="1"
     inkscape:current-layer="svg14" /><metadata
     id="metadata2"> Svg Vector Icons : http://www.onlinewebfonts.com/icon <rdf:RDF><cc:Work
     rdf:about=""><dc:format>image/svg+xml</dc:format><dc:type
       rdf:resource="http://purl.org/dc/dcmitype/StillImage" /><dc:title /></cc:Work></rdf:RDF></metadata><g
     id="g10"
     transform="matrix(0.00306125,0,0,-0.00306125,0.69381082,16.336909)"
     style="stroke:#ffffff;stroke-opacity:1;stroke-width:326.66394447;stroke-miterlimit:4;stroke-dasharray:none"><path
       inkscape:connector-curvature="0"
       id="path4"
       d="M 2592.9,4994.2 C 1966.6,4882 1429.1,4473 1155.7,3895.8 c -130.9,-275.7 -180,-502.4 -180,-827.3 0,-210.3 14,-327.2 49.1,-467.4 149.6,-570.2 509.4,-1016.5 1028.2,-1276 247.7,-123.8 495.4,-184.6 820.2,-203.3 L 3141.9,1105.4 3263.4,825 C 3420,462.8 3644.3,-219.6 3730.8,-586.5 l 65.4,-287.4 147.2,11.7 c 546.8,51.4 1491,588.9 1848.5,1053.9 l 103,133.3 -376.2,378.6 c -208,208 -441.7,458 -523.5,553.8 -194,236 -486.1,628.6 -486.1,656.7 0,11.7 28,65.4 63.1,121.5 331.8,525.8 383.2,1259.6 128.5,1822.8 -247.7,546.8 -715.1,941.8 -1301.7,1100.7 -170.5,46.7 -628.5,67.8 -806.1,35.1 z"
       style="stroke:#ffffff;stroke-opacity:1;stroke-width:326.66394447;stroke-miterlimit:4;stroke-dasharray:none" /><path
       inkscape:connector-curvature="0"
       id="path6"
       d="m 6116.9,1014.4 c -187,-32.7 -212.6,-49.1 -105.2,-70.1 112.2,-21 261.7,-158.9 308.5,-282.8 84.1,-219.7 -42.1,-530.5 -348.2,-848.3 -803.9,-839 -2203.7,-1334.4 -2636,-932.4 -109.8,102.8 -142.5,194 -128.5,373.9 9.4,154.2 9.4,161.3 -28,116.8 -434.7,-539.8 -553.8,-839 -532.8,-1339 16.4,-420.6 130.9,-698.7 525.8,-1285.3 219.7,-329.5 231.4,-341.2 378.6,-416 820.3,-411.3 2881.4,380.9 4122.3,1584.4 327.2,317.8 516.4,560.9 649.6,836.6 84.1,175.3 98.2,226.7 107.5,390.3 l 9.3,187 -147.2,303.8 C 8108,18.9 7972.4,247.9 7815.9,441.9 7591.5,720 7236.3,942 6904.4,1012.1 c -193.9,39.7 -567.8,42.1 -787.5,2.3 z"
       style="stroke:#ffffff;stroke-opacity:1;stroke-width:326.66394447;stroke-miterlimit:4;stroke-dasharray:none" /><path
       inkscape:connector-curvature="0"
       id="path8"
       d="m 8687.5,-1472 c -504.8,-1039.9 -2182.6,-2222.4 -3699.3,-2610.3 -394.9,-100.5 -703.4,-137.9 -1018.9,-123.8 -184.6,9.3 -250,7 -238.4,-14 95.8,-158.9 224.3,-338.8 268.7,-380.9 217.3,-203.3 719.8,-245.4 1313.3,-112.2 1736.4,390.2 3704.1,1920.8 3711.1,2886 2.3,135.5 -9.3,175.3 -107.5,369.2 -58.4,116.8 -109.8,215 -114.5,212.6 -2.4,0.1 -53.7,-102.8 -114.5,-226.6 z"
       style="stroke:#ffffff;stroke-opacity:1;stroke-width:326.66394447;stroke-miterlimit:4;stroke-dasharray:none" /></g></svg>