<?xml version="1.0" encoding="UTF-8" standalone="no"?>
<!-- Created with Inkscape (http://www.inkscape.org/) -->

<svg
   xmlns:dc="http://purl.org/dc/elements/1.1/"
   xmlns:cc="http://creativecommons.org/ns#"
   xmlns:rdf="http://www.w3.org/1999/02/22-rdf-syntax-ns#"
   xmlns:svg="http://www.w3.org/2000/svg"
   xmlns="http://www.w3.org/2000/svg"
   xmlns:sodipodi="http://sodipodi.sourceforge.net/DTD/sodipodi-0.dtd"
   xmlns:inkscape="http://www.inkscape.org/namespaces/inkscape"
   width="32"
   height="32"
   viewBox="0 0 8.4666665 8.4666669"
   version="1.1"
   id="svg8"
   inkscape:version="0.92.1 r15371"
   sodipodi:docname="graphics-copy.svg">
  <defs
     id="defs2" />
  <sodipodi:namedview
     id="base"
     pagecolor="#ffffff"
     bordercolor="#666666"
     borderopacity="1.0"
     inkscape:pageopacity="0.0"
     inkscape:pageshadow="2"
     inkscape:zoom="32"
     inkscape:cx="10.744246"
     inkscape:cy="16.874229"
     inkscape:document-units="px"
     inkscape:current-layer="layer1"
     showgrid="false"
     units="px"
     inkscape:window-width="3840"
     inkscape:window-height="2064"
     inkscape:window-x="0"
     inkscape:window-y="27"
     inkscape:window-maximized="1" />
  <metadata
     id="metadata5">
    <rdf:RDF>
      <cc:Work
         rdf:about="">
        <dc:format>image/svg+xml</dc:format>
        <dc:type
           rdf:resource="http://purl.org/dc/dcmitype/StillImage" />
        <dc:title></dc:title>
      </cc:Work>
    </rdf:RDF>
  </metadata>
  <g
     inkscape:label="Calque 1"
     inkscape:groupmode="layer"
     id="layer1"
     transform="translate(0,-288.53333)">
    <g
       id="g4502"
       transform="translate(0.15152997,0.06490835)">
      <path
         inkscape:connector-curvature="0"
         id="rect4493"
         d="M 1.5878906,290.12109 H 1.3632812 v 0.39649 H 1.8125 v -0.17188 h 0.2246094 v -0.44922 H 1.5878906 Z m 0.9003906,0.22461 H 2.9375 v -0.44922 H 2.4882812 Z m 0.9003907,0 h 0.4511719 v -0.44922 H 3.3886719 Z m 0.9003906,0 h 0.4511719 v -0.44922 H 4.2890625 Z m 0.9003906,0 H 5.640625 v -0.44922 H 5.1894531 Z m 0.9003907,0 h 0.4511718 v -0.44922 H 6.0898438 Z m 0.9023437,0 h 0.4492187 v -0.44922 H 6.9921875 Z m 0.2324219,0.66797 H 7.6757812 V 290.5625 H 7.2246094 Z m -5.8613282,0.4043 H 1.8125 V 290.9668 H 1.3632812 Z m 5.8613282,0.49609 h 0.4511718 v -0.45117 H 7.2246094 Z m -5.8613282,0.4043 H 1.8125 v -0.45117 H 1.3632812 Z m 5.8613282,0.49609 h 0.4511718 v -0.44922 H 7.2246094 Z m -5.8613282,0.4043 H 1.8125 v -0.45117 H 1.3632812 Z m 5.8613282,0.49609 h 0.4511718 v -0.44922 H 7.2246094 Z m -5.8613282,0.4043 H 1.8125 v -0.45117 H 1.3632812 Z m 5.8613282,0.49609 h 0.4511718 v -0.44921 H 7.2246094 Z m -5.8613282,0.4043 H 1.8125 v -0.44922 H 1.3632812 Z m 5.8613282,0.49805 h 0.4511718 v -0.45117 H 7.2246094 Z m -5.8613282,0.40234 H 1.8125 V 295.4707 H 1.3632812 Z m 0.4296876,0.4707 h 0.4511718 v -0.45117 H 1.7929688 Z m 0.9003906,0 h 0.4511718 v -0.45117 H 2.6933594 Z m 0.9003906,0 h 0.4511719 v -0.45117 H 3.59375 Z m 0.9023438,0 h 0.4492187 v -0.45117 H 4.4960938 Z m 0.9003906,0 h 0.4492187 v -0.45117 H 5.3964844 Z m 0.9003906,0 h 0.4492188 v -0.45117 H 6.296875 Z m 0.9003906,0 h 0.2519532 0.2265624 v -0.22656 -0.19726 H 7.4492188 v -0.0273 H 7.1972656 Z"
         style="color:#000000;font-style:normal;font-variant:normal;font-weight:normal;font-stretch:normal;font-size:medium;line-height:normal;font-family:sans-serif;font-variant-ligatures:normal;font-variant-position:normal;font-variant-caps:normal;font-variant-numeric:normal;font-variant-alternates:normal;font-feature-settings:normal;text-indent:0;text-align:start;text-decoration:none;text-decoration-line:none;text-decoration-style:solid;text-decoration-color:#000000;letter-spacing:normal;word-spacing:normal;text-transform:none;writing-mode:lr-tb;direction:ltr;text-orientation:mixed;dominant-baseline:auto;baseline-shift:baseline;text-anchor:start;white-space:normal;shape-padding:0;clip-rule:nonzero;display:inline;overflow:visible;visibility:visible;opacity:1;isolation:auto;mix-blend-mode:normal;color-interpolation:sRGB;color-interpolation-filters:linearRGB;solid-color:#000000;solid-opacity:1;vector-effect:none;fill:#121212;fill-opacity:1;fill-rule:nonzero;stroke:#ffffff;stroke-width:0.26458332;stroke-linecap:butt;stroke-linejoin:miter;stroke-miterlimit:4;stroke-dasharray:none;stroke-dashoffset:0;stroke-opacity:1;marker:none;color-rendering:auto;image-rendering:auto;shape-rendering:auto;text-rendering:auto;enable-background:accumulate" />
      <path
         d="m 1.3697699,289.01289 v 0.88195 H 0.48782555 v 0.44097 H 1.3697699 v 0.88194 h 0.4409722 v -0.88194 h 0.8819444 v -0.44097 H 1.8107421 v -0.88195 z"
         style="font-style:normal;font-variant:normal;font-weight:normal;font-stretch:normal;font-size:medium;line-height:5.29166651px;font-family:Minitel;-inkscape-font-specification:Minitel;font-variant-ligatures:normal;font-variant-caps:normal;font-variant-numeric:normal;font-feature-settings:normal;text-align:center;letter-spacing:0px;word-spacing:0px;writing-mode:lr-tb;text-anchor:middle;fill:#000000;fill-opacity:1;stroke:#ffffff;stroke-width:0.26458332px;stroke-linecap:butt;stroke-linejoin:miter;stroke-opacity:1"
         id="path4489"
         inkscape:connector-curvature="0" />
    </g>
  </g>
</svg>
