<?xml version="1.0" encoding="UTF-8" standalone="no"?>
<!-- Created with Inkscape (http://www.inkscape.org/) -->

<svg
   xmlns:dc="http://purl.org/dc/elements/1.1/"
   xmlns:cc="http://creativecommons.org/ns#"
   xmlns:rdf="http://www.w3.org/1999/02/22-rdf-syntax-ns#"
   xmlns:svg="http://www.w3.org/2000/svg"
   xmlns="http://www.w3.org/2000/svg"
   xmlns:sodipodi="http://sodipodi.sourceforge.net/DTD/sodipodi-0.dtd"
   xmlns:inkscape="http://www.inkscape.org/namespaces/inkscape"
   width="32"
   height="32"
   viewBox="0 0 8.4666665 8.4666669"
   version="1.1"
   id="svg8"
   inkscape:version="0.92.1 r15371"
   sodipodi:docname="manage-edit.svg">
  <defs
     id="defs2" />
  <sodipodi:namedview
     id="base"
     pagecolor="#ffffff"
     bordercolor="#666666"
     borderopacity="1.0"
     inkscape:pageopacity="0.0"
     inkscape:pageshadow="2"
     inkscape:zoom="15.839192"
     inkscape:cx="12.956117"
     inkscape:cy="-5.2948555"
     inkscape:document-units="px"
     inkscape:current-layer="layer1"
     showgrid="false"
     units="px"
     inkscape:window-width="3840"
     inkscape:window-height="2064"
     inkscape:window-x="0"
     inkscape:window-y="27"
     inkscape:window-maximized="1" />
  <metadata
     id="metadata5">
    <rdf:RDF>
      <cc:Work
         rdf:about="">
        <dc:format>image/svg+xml</dc:format>
        <dc:type
           rdf:resource="http://purl.org/dc/dcmitype/StillImage" />
        <dc:title></dc:title>
      </cc:Work>
    </rdf:RDF>
  </metadata>
  <g
     inkscape:label="Calque 1"
     inkscape:groupmode="layer"
     id="layer1"
     transform="translate(0,-288.53332)">
    <path
       style="fill:#fdfdfd;stroke-width:0.00444927;fill-opacity:1"
       inkscape:connector-curvature="0"
       d="m 4.2155363,294.3328 0.5161153,-0.51612 -0.6762891,-0.67629 -0.5161153,0.51612 v 0.24916 h 0.42713 v 0.42713 z m 1.9576788,-3.20348 q -0.071188,-0.0712 -0.1468259,0.004 l -1.5572445,1.55725 q -0.075638,0.0756 -0.00445,0.14682 0.071188,0.0712 0.1468259,-0.004 l 1.5572445,-1.55724 q 0.075638,-0.0756 0.00445,-0.14683 z m 0.3559416,2.64287 v 0.84536 q 0,0.52946 -0.3759633,0.90543 -0.3759634,0.37596 -0.9054265,0.37596 H 1.5459743 q -0.5294632,0 -0.90542647,-0.37596 -0.37596332,-0.37597 -0.37596332,-0.90543 v -3.70179 q 0,-0.52947 0.37596332,-0.90543 0.37596327,-0.37596 0.90542647,-0.37596 h 3.7017926 q 0.280304,0 0.5205646,0.11123 0.066739,0.0311 0.080087,0.10233 0.013348,0.0756 -0.040044,0.12903 l -0.2180142,0.21802 q -0.06229,0.0623 -0.1423766,0.0356 -0.1023333,-0.0267 -0.2002172,-0.0267 H 1.5459743 q -0.2936518,0 -0.5027675,0.20912 -0.20911573,0.20912 -0.20911573,0.50277 v 3.70179 q 0,0.29365 0.20911573,0.50277 0.2091157,0.20911 0.5027675,0.20911 h 3.7017926 q 0.2936518,0 0.5027675,-0.20911 0.2091157,-0.20912 0.2091157,-0.50277 v -0.56061 q 0,-0.0578 0.040043,-0.0979 l 0.2847533,-0.28476 q 0.066739,-0.0667 0.1557245,-0.0311 0.088985,0.0356 0.088985,0.12903 z m -0.42713,-3.28356 1.2813898,1.28139 -2.9899094,2.98991 H 3.1121173 v -1.28139 z m 1.9754759,0.5873 -0.4093328,0.40933 -1.2813898,-1.28139 0.4093329,-0.40933 q 0.1245795,-0.12458 0.3025503,-0.12458 0.1779708,0 0.3025504,0.12458 l 0.676289,0.67629 q 0.1245796,0.12458 0.1245796,0.30255 0,0.17797 -0.1245796,0.30255 z"
       id="path4485" />
  </g>
</svg>
