<?xml version="1.0" encoding="UTF-8" standalone="no"?>
<!-- Created with Inkscape (http://www.inkscape.org/) -->

<svg
   xmlns:dc="http://purl.org/dc/elements/1.1/"
   xmlns:cc="http://creativecommons.org/ns#"
   xmlns:rdf="http://www.w3.org/1999/02/22-rdf-syntax-ns#"
   xmlns:svg="http://www.w3.org/2000/svg"
   xmlns="http://www.w3.org/2000/svg"
   xmlns:sodipodi="http://sodipodi.sourceforge.net/DTD/sodipodi-0.dtd"
   xmlns:inkscape="http://www.inkscape.org/namespaces/inkscape"
   width="32"
   height="32"
   viewBox="0 0 8.4666665 8.4666669"
   version="1.1"
   id="svg8"
   sodipodi:docname="save.svg"
   inkscape:version="0.92.1 r15371">
  <defs
     id="defs2" />
  <sodipodi:namedview
     id="base"
     pagecolor="#ffffff"
     bordercolor="#666666"
     borderopacity="1.0"
     inkscape:pageopacity="0.0"
     inkscape:pageshadow="2"
     inkscape:zoom="5.6568543"
     inkscape:cx="4.1644932"
     inkscape:cy="-19.136221"
     inkscape:document-units="mm"
     inkscape:current-layer="layer1"
     showgrid="false"
     units="px"
     inkscape:window-width="1962"
     inkscape:window-height="1478"
     inkscape:window-x="1031"
     inkscape:window-y="462"
     inkscape:window-maximized="0"
     inkscape:snap-global="true" />
  <metadata
     id="metadata5">
    <rdf:RDF>
      <cc:Work
         rdf:about="">
        <dc:format>image/svg+xml</dc:format>
        <dc:type
           rdf:resource="http://purl.org/dc/dcmitype/StillImage" />
        <dc:title />
      </cc:Work>
    </rdf:RDF>
  </metadata>
  <g
     inkscape:label="Calque 1"
     inkscape:groupmode="layer"
     id="layer1"
     transform="translate(0,-288.53332)">
    <g
       id="g4491"
       transform="matrix(0.00516764,0,0,-0.00516764,0.26458581,296.07394)">
      <path
         id="path4489"
         d="m 384,0 h 768 V 384 H 384 Z m 896,0 h 128 v 896 c 0,19 -17,60 -30,73 l -281,281 c -14,14 -53,30 -73,30 V 864 c 0,-53 -43,-96 -96,-96 H 352 c -53,0 -96,43 -96,96 v 416 H 128 V 0 h 128 v 416 c 0,53 43,96 96,96 h 832 c 53,0 96,-43 96,-96 z M 896,928 v 320 c 0,17 -15,32 -32,32 H 672 c -17,0 -32,-15 -32,-32 V 928 c 0,-17 15,-32 32,-32 h 192 c 17,0 32,15 32,32 z m 640,-32 V -32 c 0,-53 -43,-96 -96,-96 H 96 c -53,0 -96,43 -96,96 v 1344 c 0,53 43,96 96,96 h 928 c 53,0 126,-30 164,-68 l 280,-280 c 38,-38 68,-111 68,-164 z"
         inkscape:connector-curvature="0"
         style="fill:currentColor" />
    </g>
  </g>
</svg>
