<?xml version="1.0" encoding="UTF-8" standalone="no"?>
<!-- Created with Inkscape (http://www.inkscape.org/) -->

<svg
   xmlns:dc="http://purl.org/dc/elements/1.1/"
   xmlns:cc="http://creativecommons.org/ns#"
   xmlns:rdf="http://www.w3.org/1999/02/22-rdf-syntax-ns#"
   xmlns:svg="http://www.w3.org/2000/svg"
   xmlns="http://www.w3.org/2000/svg"
   xmlns:sodipodi="http://sodipodi.sourceforge.net/DTD/sodipodi-0.dtd"
   xmlns:inkscape="http://www.inkscape.org/namespaces/inkscape"
   width="320"
   height="320"
   viewBox="0 0 84.666665 84.666669"
   version="1.1"
   id="svg8"
   inkscape:version="0.92.1 r15371"
   sodipodi:docname="index-page-manager.svg">
  <defs
     id="defs2" />
  <sodipodi:namedview
     id="base"
     pagecolor="#ffffff"
     bordercolor="#666666"
     borderopacity="1.0"
     inkscape:pageopacity="0.0"
     inkscape:pageshadow="2"
     inkscape:zoom="1.4"
     inkscape:cx="100.92182"
     inkscape:cy="238.92105"
     inkscape:document-units="px"
     inkscape:current-layer="layer1"
     showgrid="false"
     units="px"
     inkscape:window-width="3840"
     inkscape:window-height="2064"
     inkscape:window-x="0"
     inkscape:window-y="27"
     inkscape:window-maximized="1" />
  <metadata
     id="metadata5">
    <rdf:RDF>
      <cc:Work
         rdf:about="">
        <dc:format>image/svg+xml</dc:format>
        <dc:type
           rdf:resource="http://purl.org/dc/dcmitype/StillImage" />
        <dc:title></dc:title>
      </cc:Work>
    </rdf:RDF>
  </metadata>
  <g
     inkscape:label="Calque 1"
     inkscape:groupmode="layer"
     id="layer1"
     transform="translate(0,-212.33332)">
    <path
       style="fill:#ffffff;stroke-width:0.04429408;fill-opacity:1"
       inkscape:connector-curvature="0"
       d="m 25.324407,273.09299 v 8.50447 q 0,1.77176 -1.240234,3.012 -1.240235,1.24023 -3.011998,1.24023 H 6.8980695 q -1.7717632,0 -3.0119975,-1.24023 -1.2402342,-1.24024 -1.2402342,-3.012 v -8.50447 q 0,-1.77176 1.2402342,-3.01199 1.2402343,-1.24024 3.0119975,-1.24024 H 21.072175 q 1.771763,0 3.011998,1.24024 1.240234,1.24023 1.240234,3.01199 z m 0,-22.67856 v 8.50446 q 0,1.77176 -1.240234,3.012 -1.240235,1.24023 -3.011998,1.24023 H 6.8980695 q -1.7717632,0 -3.0119975,-1.24023 -1.2402342,-1.24024 -1.2402342,-3.012 v -8.50446 q 0,-1.77177 1.2402342,-3.012 1.2402343,-1.24024 3.0119975,-1.24024 H 21.072175 q 1.771763,0 3.011998,1.24024 1.240234,1.24023 1.240234,3.012 z m 28.348211,22.67856 v 8.50447 q 0,1.77176 -1.240234,3.012 -1.240235,1.24023 -3.011998,1.24023 H 35.246281 q -1.771764,0 -3.011998,-1.24023 -1.240234,-1.24024 -1.240234,-3.012 v -8.50447 q 0,-1.77176 1.240234,-3.01199 1.240234,-1.24024 3.011998,-1.24024 h 14.174105 q 1.771763,0 3.011998,1.24024 1.240234,1.24023 1.240234,3.01199 z M 25.324407,227.73586 v 8.50446 q 0,1.77176 -1.240234,3.012 -1.240235,1.24023 -3.011998,1.24023 H 6.8980695 q -1.7717632,0 -3.0119975,-1.24023 -1.2402342,-1.24024 -1.2402342,-3.012 v -8.50446 q 0,-1.77177 1.2402342,-3.012 1.2402343,-1.24023 3.0119975,-1.24023 H 21.072175 q 1.771763,0 3.011998,1.24023 1.240234,1.24023 1.240234,3.012 z m 28.348211,22.67857 v 8.50446 q 0,1.77176 -1.240234,3.012 -1.240235,1.24023 -3.011998,1.24023 H 35.246281 q -1.771764,0 -3.011998,-1.24023 -1.240234,-1.24024 -1.240234,-3.012 v -8.50446 q 0,-1.77177 1.240234,-3.012 1.240234,-1.24024 3.011998,-1.24024 h 14.174105 q 1.771763,0 3.011998,1.24024 1.240234,1.24023 1.240234,3.012 z m 28.348211,22.67856 v 8.50447 q 0,1.77176 -1.240234,3.012 -1.240234,1.24023 -3.011998,1.24023 H 63.594492 q -1.771763,0 -3.011998,-1.24023 -1.240234,-1.24024 -1.240234,-3.012 v -8.50447 q 0,-1.77176 1.240234,-3.01199 1.240235,-1.24024 3.011998,-1.24024 h 14.174105 q 1.771764,0 3.011998,1.24024 1.240234,1.24023 1.240234,3.01199 z M 53.672618,227.73586 v 8.50446 q 0,1.77176 -1.240234,3.012 -1.240235,1.24023 -3.011998,1.24023 H 35.246281 q -1.771764,0 -3.011998,-1.24023 -1.240234,-1.24024 -1.240234,-3.012 v -8.50446 q 0,-1.77177 1.240234,-3.012 1.240234,-1.24023 3.011998,-1.24023 h 14.174105 q 1.771763,0 3.011998,1.24023 1.240234,1.24023 1.240234,3.012 z m 28.348211,22.67857 v 8.50446 q 0,1.77176 -1.240234,3.012 -1.240234,1.24023 -3.011998,1.24023 H 63.594492 q -1.771763,0 -3.011998,-1.24023 -1.240234,-1.24024 -1.240234,-3.012 v -8.50446 q 0,-1.77177 1.240234,-3.012 1.240235,-1.24024 3.011998,-1.24024 h 14.174105 q 1.771764,0 3.011998,1.24024 1.240234,1.24023 1.240234,3.012 z m 0,-22.67857 v 8.50446 q 0,1.77176 -1.240234,3.012 -1.240234,1.24023 -3.011998,1.24023 H 63.594492 q -1.771763,0 -3.011998,-1.24023 -1.240234,-1.24024 -1.240234,-3.012 v -8.50446 q 0,-1.77177 1.240234,-3.012 1.240235,-1.24023 3.011998,-1.24023 h 14.174105 q 1.771764,0 3.011998,1.24023 1.240234,1.24023 1.240234,3.012 z"
       id="path4485" />
  </g>
</svg>
