<?xml version="1.0" encoding="UTF-8" standalone="no"?>
<!-- Created with Inkscape (http://www.inkscape.org/) -->

<svg
   xmlns:dc="http://purl.org/dc/elements/1.1/"
   xmlns:cc="http://creativecommons.org/ns#"
   xmlns:rdf="http://www.w3.org/1999/02/22-rdf-syntax-ns#"
   xmlns:svg="http://www.w3.org/2000/svg"
   xmlns="http://www.w3.org/2000/svg"
   xmlns:sodipodi="http://sodipodi.sourceforge.net/DTD/sodipodi-0.dtd"
   xmlns:inkscape="http://www.inkscape.org/namespaces/inkscape"
   width="320"
   height="250"
   viewBox="0 0 84.666665 66.145835"
   version="1.1"
   id="svg8"
   inkscape:version="0.92.1 r15371"
   sodipodi:docname="missing-thumbnail.svg">
  <defs
     id="defs2" />
  <sodipodi:namedview
     id="base"
     pagecolor="#ffffff"
     bordercolor="#666666"
     borderopacity="1.0"
     inkscape:pageopacity="0.0"
     inkscape:pageshadow="2"
     inkscape:zoom="2.8"
     inkscape:cx="129.71073"
     inkscape:cy="70.260522"
     inkscape:document-units="px"
     inkscape:current-layer="layer1"
     showgrid="false"
     units="px"
     inkscape:window-width="3840"
     inkscape:window-height="2064"
     inkscape:window-x="0"
     inkscape:window-y="27"
     inkscape:window-maximized="1" />
  <metadata
     id="metadata5">
    <rdf:RDF>
      <cc:Work
         rdf:about="">
        <dc:format>image/svg+xml</dc:format>
        <dc:type
           rdf:resource="http://purl.org/dc/dcmitype/StillImage" />
        <dc:title></dc:title>
      </cc:Work>
    </rdf:RDF>
  </metadata>
  <g
     inkscape:label="Calque 1"
     inkscape:groupmode="layer"
     id="layer1"
     transform="translate(0,-230.85414)">
    <rect
       style="color:#000000;display:inline;overflow:visible;visibility:visible;opacity:1;vector-effect:none;fill:#8c6448;fill-opacity:1;fill-rule:nonzero;stroke:none;stroke-width:1.72899997;stroke-linecap:butt;stroke-linejoin:miter;stroke-miterlimit:4;stroke-dasharray:none;stroke-dashoffset:0;stroke-opacity:1;marker:none;enable-background:accumulate"
       id="rect4491"
       width="84.666664"
       height="66.145836"
       x="7.1054274e-15"
       y="230.85414" />
    <g
       aria-label="Missing
thumbnail!"
       style="font-style:normal;font-variant:normal;font-weight:normal;font-stretch:normal;font-size:7.78767157px;line-height:11.68150711px;font-family:Minitel;-inkscape-font-specification:Minitel;font-variant-ligatures:normal;font-variant-caps:normal;font-variant-numeric:normal;font-feature-settings:normal;text-align:center;letter-spacing:0px;word-spacing:0px;writing-mode:lr-tb;text-anchor:middle;fill:#ffffff;fill-opacity:1;stroke:none;stroke-width:0.58407533px;stroke-linecap:butt;stroke-linejoin:miter;stroke-opacity:1"
       id="text4487">
      <path
         d="m 17.023402,254.6792 v 6.81421 h 0.973459 v -4.8673 h 0.973459 v -0.97346 h -0.973459 v -0.97345 z m 1.946918,1.94691 v 0.97346 h 0.973459 v -0.97346 z m 0.973459,0 h 0.973458 v 4.8673 h 0.973459 v -6.81421 h -0.973459 v 0.97345 h -0.973458 z"
         style="fill:#ffffff;fill-opacity:1;stroke-width:0.58407533px"
         id="path4493" />
      <path
         d="m 26.757991,254.6792 v 0.97345 h 0.973459 v -0.97345 z m -0.973459,1.94691 v 0.97346 h 0.973459 v 2.92038 h -0.973459 v 0.97346 h 2.920377 v -0.97346 H 27.73145 v -3.89384 h -0.973459 z"
         style="fill:#ffffff;fill-opacity:1;stroke-width:0.58407533px"
         id="path4495" />
      <path
         d="m 33.572204,256.62611 v 0.97346 h 2.920377 v -0.97346 z m 0,0.97346 h -0.973459 v 0.97346 h 0.973459 z m 0,0.97346 v 0.97346 h 2.920377 v -0.97346 z m 2.920377,0.97346 v 0.97346 h 0.973459 v -0.97346 z m 0,0.97346 h -3.893836 v 0.97346 h 3.893836 z"
         style="fill:#ffffff;fill-opacity:1;stroke-width:0.58407533px"
         id="path4497" />
      <path
         d="m 41.359875,256.62611 v 0.97346 h 2.920377 v -0.97346 z m 0,0.97346 h -0.973459 v 0.97346 h 0.973459 z m 0,0.97346 v 0.97346 h 2.920377 v -0.97346 z m 2.920377,0.97346 v 0.97346 h 0.973459 v -0.97346 z m 0,0.97346 h -3.893836 v 0.97346 h 3.893836 z"
         style="fill:#ffffff;fill-opacity:1;stroke-width:0.58407533px"
         id="path4499" />
      <path
         d="m 50.121006,254.6792 v 0.97345 h 0.973459 v -0.97345 z m -0.973459,1.94691 v 0.97346 h 0.973459 v 2.92038 h -0.973459 v 0.97346 h 2.920377 v -0.97346 h -0.973459 v -3.89384 h -0.973459 z"
         style="fill:#ffffff;fill-opacity:1;stroke-width:0.58407533px"
         id="path4501" />
      <path
         d="m 55.96176,256.62611 v 4.8673 h 0.973459 v -2.92038 h 0.973459 v -0.97346 h -0.973459 v -0.97346 z m 1.946918,0.97346 h 1.946918 v -0.97346 h -1.946918 z m 1.946918,0 v 3.89384 h 0.973459 v -3.89384 z"
         style="fill:#ffffff;fill-opacity:1;stroke-width:0.58407533px"
         id="path4503" />
      <path
         d="m 64.722889,256.62611 v 0.97346 h 2.920377 v 1.94692 h -2.920377 v 0.97346 h 2.920377 v 1.94692 h 0.973459 v -5.84076 h -0.973459 z m 2.920377,5.84076 h -1.946918 v 0.97346 h 1.946918 z m -1.946918,0 v -0.97346 h -0.973459 v 0.97346 z m -0.973459,-2.92038 v -1.94692 H 63.74943 v 1.94692 z"
         style="fill:#ffffff;fill-opacity:1;stroke-width:0.58407533px"
         id="path4505" />
      <path
         d="m 6.3153533,266.3607 v 5.84076 h 0.9734589 v -2.92038 h 1.9469179 v -0.97346 H 7.2888122 v -1.94692 z m 0.9734589,5.84076 v 0.97346 h 1.9469179 v -0.97346 z"
         style="fill:#ffffff;fill-opacity:1;stroke-width:0.58407533px"
         id="path4507" />
      <path
         d="m 13.129566,266.3607 v 6.81422 h 0.973459 v -2.92038 h 0.973459 v -0.97346 h -0.973459 v -2.92038 z m 1.946918,2.92038 h 1.946918 v -0.97346 h -1.946918 z m 1.946918,0 v 3.89384 h 0.973459 v -3.89384 z"
         style="fill:#ffffff;fill-opacity:1;stroke-width:0.58407533px"
         id="path4509" />
      <path
         d="m 20.917237,268.30762 v 3.89384 h 0.973459 v -3.89384 z m 0.973459,3.89384 v 0.97346 h 1.946918 v -0.97346 z m 1.946918,0 h 0.973459 v 0.97346 h 0.973459 v -4.8673 h -0.973459 v 2.92038 h -0.973459 z"
         style="fill:#ffffff;fill-opacity:1;stroke-width:0.58407533px"
         id="path4511" />
      <path
         d="m 28.704909,268.30762 v 4.8673 h 0.973458 v -3.89384 h 0.973459 v -0.97346 h -0.973459 z m 1.946917,0.97346 v 3.89384 h 0.973459 v -3.89384 z m 0.973459,0 h 0.973459 v -0.97346 h -0.973459 z m 0.973459,0 v 3.89384 h 0.973459 v -3.89384 z"
         style="fill:#ffffff;fill-opacity:1;stroke-width:0.58407533px"
         id="path4513" />
      <path
         d="m 36.492581,266.3607 v 6.81422 h 0.973459 2.920376 v -0.97346 H 37.46604 v -2.92038 h 2.920376 v -0.97346 H 37.46604 v -1.94692 z m 3.893835,2.92038 v 2.92038 h 0.973459 v -2.92038 z"
         style="fill:#ffffff;fill-opacity:1;stroke-width:0.58407533px"
         id="path4515" />
      <path
         d="m 44.280253,268.30762 v 4.8673 h 0.973459 v -2.92038 h 0.973459 v -0.97346 h -0.973459 v -0.97346 z m 1.946918,0.97346 h 1.946917 v -0.97346 h -1.946917 z m 1.946917,0 v 3.89384 h 0.973459 v -3.89384 z"
         style="fill:#ffffff;fill-opacity:1;stroke-width:0.58407533px"
         id="path4517" />
      <path
         d="m 53.041382,268.30762 v 0.97346 H 54.9883 v -0.97346 z m 1.946918,0.97346 v 0.97346 h 0.973459 V 271.228 H 54.9883 v 0.97346 h 0.973459 v 0.97346 h 0.973458 v -4.8673 h -0.973458 v 0.97346 z m 0,2.92038 h -1.946918 v 0.97346 H 54.9883 Z m -1.946918,0 v -2.92038 h -0.973459 v 2.92038 z"
         style="fill:#ffffff;fill-opacity:1;stroke-width:0.58407533px"
         id="path4519" />
      <path
         d="m 61.802515,266.3607 v 0.97346 h 0.973459 v -0.97346 z m -0.973459,1.94692 v 0.97346 h 0.973459 v 2.92038 h -0.973459 v 0.97346 h 2.920377 v -0.97346 h -0.973459 v -3.89384 h -0.973459 z"
         style="fill:#ffffff;fill-opacity:1;stroke-width:0.58407533px"
         id="path4521" />
      <path
         d="m 68.616726,266.3607 v 0.97346 h 0.973459 v 4.8673 h -0.973459 v 0.97346 h 2.920377 v -0.97346 h -0.973459 v -4.8673 -0.97346 z"
         style="fill:#ffffff;fill-opacity:1;stroke-width:0.58407533px"
         id="path4523" />
      <path
         d="m 77.377855,266.3607 v 4.8673 h 0.973459 v -4.8673 z m 0,5.84076 v 0.97346 h 0.973459 v -0.97346 z"
         style="fill:#ffffff;fill-opacity:1;stroke-width:0.58407533px"
         id="path4525" />
    </g>
  </g>
</svg>
